<?xml version="1.0" standalone="no"?>
<!DOCTYPE svg PUBLIC "-//W3C//DTD SVG 20010904//EN"
 "http://www.w3.org/TR/2001/REC-SVG-20010904/DTD/svg10.dtd">
<svg version="1.0" xmlns="http://www.w3.org/2000/svg"
 width="832.000000pt" height="832.000000pt" viewBox="0 0 832.000000 832.000000"
 preserveAspectRatio="xMidYMid meet">
<metadata>
Created by potrace 1.11, written by Peter Selinger 2001-2013
</metadata>
<g transform="translate(0.000000,832.000000) scale(0.100000,-0.100000)"
fill="#000000" stroke="none">
<path d="M2503 8126 c-173 -43 -289 -151 -324 -303 -11 -48 -13 -191 -4 -248
3 -16 8 -46 11 -65 3 -19 8 -42 11 -50 3 -8 8 -24 10 -35 9 -48 53 -161 104
-271 16 -34 29 -66 29 -72 0 -6 4 -12 8 -14 4 -1 23 -30 41 -63 35 -62 163
-239 181 -250 5 -3 10 0 10 7 0 33 69 145 120 197 73 73 80 78 161 118 70 34
77 41 59 59 -10 10 -65 164 -74 207 -3 12 -8 33 -11 47 -21 90 -28 264 -14
335 6 28 11 55 13 62 1 7 5 16 9 19 4 4 7 14 7 23 0 9 15 46 34 84 l34 67 -31
33 c-31 32 -127 102 -137 100 -5 -1 -10 1 -55 14 -45 14 -133 14 -192 -1z"/>
<path d="M5597 8120 c-26 -9 -53 -22 -59 -28 -7 -7 -16 -12 -20 -12 -5 0 -14
-4 -21 -10 -7 -5 -27 -22 -45 -36 -52 -42 -55 -55 -26 -110 46 -86 82 -237 79
-325 -4 -76 -15 -176 -25 -208 -5 -17 -9 -35 -9 -39 -4 -38 -47 -160 -77 -215
l-15 -27 48 -21 c146 -62 249 -164 298 -293 l19 -49 24 29 c46 57 139 200 184
284 41 77 112 247 123 295 2 6 15 53 30 105 47 165 49 268 5 382 -54 142 -140
228 -275 274 -69 23 -178 25 -238 4z"/>
<path d="M3440 7968 c-74 -12 -88 -16 -139 -42 -69 -34 -114 -78 -149 -144
-31 -59 -46 -122 -43 -182 4 -86 21 -183 41 -235 7 -16 14 -40 16 -51 4 -20
48 -116 79 -172 7 -14 47 -40 93 -63 132 -64 234 -182 294 -339 21 -58 26 -64
74 -86 65 -29 130 -36 166 -18 73 37 115 151 123 331 1 39 5 75 9 81 3 5 3 12
0 15 -3 3 -8 45 -10 94 -4 87 -23 211 -44 288 -17 65 -20 74 -24 94 -3 11 -18
52 -35 92 -17 41 -31 77 -31 82 0 12 -60 98 -90 127 -89 90 -231 145 -330 128z"/>
<path d="M4708 7945 c-88 -32 -173 -113 -231 -217 -27 -50 -83 -181 -93 -220
-2 -10 -6 -26 -9 -35 -26 -97 -46 -210 -48 -265 -1 -37 -4 -68 -7 -68 -7 0 -4
-189 4 -260 14 -122 55 -219 104 -244 54 -27 235 -5 238 29 0 6 6 23 12 38 7
16 12 32 12 36 0 4 18 38 41 77 57 96 159 192 254 240 82 41 96 58 139 164 10
25 22 54 27 65 5 11 11 29 13 40 2 11 9 38 15 60 6 22 12 51 15 65 2 14 5 25
6 25 1 0 3 38 6 85 10 178 -65 299 -231 370 -63 27 -211 35 -267 15z"/>
<path d="M1282 7264 c-159 -42 -297 -193 -319 -349 -14 -100 4 -193 52 -273
19 -31 21 -32 65 -25 82 14 231 9 305 -11 137 -37 319 -138 424 -235 l45 -41
60 60 c34 33 70 66 81 74 76 52 175 87 260 91 36 2 49 7 47 16 -3 13 -104 162
-126 186 -6 6 -42 47 -81 90 -69 78 -210 204 -303 271 -45 33 -194 110 -223
116 -8 2 -21 6 -29 9 -75 28 -193 38 -258 21z"/>
<path d="M6890 7259 c-25 -5 -56 -11 -70 -13 -36 -7 -148 -50 -201 -78 -43
-23 -138 -85 -149 -97 -3 -3 -27 -24 -55 -45 -81 -64 -246 -235 -313 -324 -56
-76 -97 -140 -90 -143 2 -1 23 -2 48 -3 47 -3 200 -45 200 -55 0 -3 14 -12 31
-20 17 -7 62 -44 100 -82 68 -67 70 -68 88 -50 33 33 167 131 179 131 7 0 12
4 12 8 0 16 196 102 276 121 73 17 208 21 314 9 21 -3 29 5 52 52 86 174 31
386 -131 510 -44 33 -110 71 -135 76 -46 11 -114 12 -156 3z"/>
<path d="M3050 6832 c-8 -3 -26 -9 -40 -15 -14 -6 -28 -10 -31 -9 -12 2 -66
-53 -91 -93 -42 -66 -54 -163 -31 -245 3 -14 7 -27 8 -30 13 -57 56 -172 86
-232 93 -188 244 -365 307 -361 6 0 20 1 31 2 27 2 88 96 112 172 25 76 35
306 18 379 -6 25 -12 54 -13 65 -11 82 -82 251 -125 296 -55 57 -167 92 -231
71z"/>
<path d="M5115 6815 c-48 -23 -105 -71 -105 -88 0 -5 -8 -21 -18 -35 -18 -26
-67 -156 -78 -204 -34 -159 -35 -347 -3 -458 21 -69 61 -143 94 -171 82 -70
298 169 410 456 9 22 11 29 19 60 3 11 12 45 21 75 44 158 -17 310 -148 365
-62 26 -138 26 -192 0z"/>
<path d="M3936 6362 c-6 -6 -102 -15 -162 -16 l-60 0 -1 -163 c-1 -118 2 -163
10 -164 43 -2 137 -33 196 -64 27 -13 28 -13 39 18 26 73 39 226 28 330 -7 57
-10 65 -27 64 -11 -1 -21 -3 -23 -5z"/>
<path d="M4324 6330 c1 -16 0 -30 -3 -30 -16 0 1 -200 25 -289 l17 -68 57 23
c55 22 80 29 143 41 15 3 27 8 28 12 0 3 1 76 2 161 l2 155 -75 2 c-41 1 -88
4 -105 7 -97 19 -93 19 -91 -14z"/>
<path d="M1085 6295 c-80 -33 -139 -88 -187 -173 -62 -109 -44 -267 45 -400
25 -38 87 -95 176 -162 19 -14 42 -32 52 -40 21 -17 161 -105 169 -105 3 -1
33 -15 67 -33 34 -18 69 -32 77 -32 8 0 16 -3 18 -8 5 -12 258 -91 318 -99
175 -24 234 19 233 171 0 78 -1 80 -34 109 -114 100 -144 133 -192 215 -40 69
-65 142 -73 217 -5 43 -12 57 -57 103 -71 73 -167 144 -257 191 -100 51 -138
62 -225 66 -58 2 -84 -2 -130 -20z"/>
<path d="M7008 6296 c-56 -16 -184 -85 -253 -136 -55 -41 -174 -154 -176 -167
-8 -70 -8 -71 -23 -140 -8 -36 -58 -143 -67 -143 -4 0 -11 -9 -14 -20 -7 -23
-136 -156 -174 -181 -22 -14 -24 -23 -26 -91 -5 -173 53 -205 291 -162 77 14
364 116 464 164 60 29 178 98 190 110 3 3 24 18 48 34 54 37 127 117 154 170
34 66 55 162 52 237 -3 56 -10 82 -36 131 -38 72 -108 145 -170 178 -53 29
-187 37 -260 16z"/>
<path d="M5915 6246 c-189 -60 -418 -277 -521 -494 -69 -146 -29 -193 172
-198 88 -3 125 1 185 17 158 45 318 137 430 249 65 65 85 98 94 160 4 25 7 47
7 50 2 8 -13 63 -25 94 -14 39 -75 100 -125 125 -53 27 -126 26 -217 -3z"/>
<path d="M2216 6247 c-130 -33 -205 -200 -148 -329 18 -40 143 -178 162 -178
4 0 20 -11 36 -25 40 -35 215 -119 299 -144 99 -29 270 -25 336 7 32 16 48 31
51 47 9 45 -52 187 -107 252 -5 6 -21 26 -35 45 -39 52 -184 193 -235 228
-120 83 -263 121 -359 97z"/>
<path d="M4669 5744 c-224 -48 -316 -168 -245 -319 23 -50 74 -104 102 -106 8
-1 20 -2 27 -3 38 -6 204 64 248 104 9 8 27 24 40 35 32 27 109 120 109 132 0
5 -15 17 -34 26 -38 18 -65 39 -132 105 -24 23 -44 42 -46 41 -2 0 -33 -7 -69
-15z"/>
<path d="M3558 5721 c-7 -12 -17 -21 -21 -21 -5 0 -18 -12 -29 -26 -11 -14
-45 -39 -74 -56 l-54 -30 17 -28 c52 -89 185 -192 291 -227 91 -30 137 -20
179 40 43 62 52 89 49 149 -3 54 -13 74 -63 122 -22 23 -102 66 -131 71 -9 2
-17 4 -17 5 0 3 -41 11 -87 16 -40 5 -48 3 -60 -15z"/>
<path d="M3121 5391 c-24 -22 -74 -54 -110 -72 -36 -18 -67 -33 -69 -34 -6 -4
-15 -95 -15 -150 0 -76 7 -114 27 -156 40 -82 69 -99 166 -95 89 3 136 24 169
72 21 31 23 41 18 121 -3 49 -10 100 -16 116 -6 15 -8 27 -6 27 8 0 -75 153
-98 182 l-22 28 -44 -39z"/>
<path d="M5104 5373 c-36 -55 -91 -183 -78 -183 4 0 2 -6 -3 -12 -11 -14 -18
-105 -14 -175 1 -30 47 -81 90 -100 20 -8 64 -17 99 -18 50 -2 69 2 95 19 72
49 99 129 92 273 -4 103 -9 120 -38 129 -32 9 -128 69 -159 99 -15 14 -31 25
-37 25 -5 0 -26 -26 -47 -57z"/>
<path d="M2329 5346 c0 0 -2 -9 -4 -18 -8 -45 -51 -157 -71 -190 l-23 -36 22
-14 c81 -52 293 -101 361 -84 20 5 21 10 19 128 -2 68 -3 126 -3 130 0 4 -8 6
-17 6 -27 -1 -141 28 -216 55 -37 14 -67 24 -68 23z"/>
<path d="M5908 5310 c-53 -20 -149 -45 -160 -42 -5 1 -8 -2 -8 -6 0 -5 -13 -7
-30 -6 -29 2 -37 -9 -30 -41 5 -24 5 -133 -1 -167 -8 -49 2 -56 76 -53 55 3
83 7 140 19 27 6 123 40 157 56 l26 12 -34 68 c-19 37 -36 76 -38 86 -3 11 -8
30 -14 44 -5 14 -7 31 -5 38 6 17 -22 14 -79 -8z"/>
<path d="M998 5076 c-1 -2 -43 -6 -93 -9 -49 -4 -101 -9 -115 -12 -14 -3 -36
-8 -49 -11 -109 -22 -228 -109 -273 -199 -28 -58 -32 -79 -33 -185 0 -82 4
-103 26 -150 22 -47 72 -108 121 -145 27 -21 115 -54 183 -67 92 -19 287 -15
408 7 16 3 41 20 55 37 63 76 136 127 230 161 72 27 174 47 240 47 33 0 47 6
72 33 66 68 92 158 62 207 -14 22 -52 61 -88 89 -37 30 -257 120 -332 136 -12
3 -32 7 -44 10 -72 18 -193 36 -263 41 -44 3 -85 7 -92 9 -6 2 -13 2 -15 1z"/>
<path d="M7245 5069 c-231 -14 -443 -67 -600 -150 -123 -64 -165 -107 -170
-173 -3 -38 2 -54 34 -103 49 -75 64 -87 116 -89 67 -3 189 -25 204 -38 8 -6
16 -9 18 -7 7 6 67 -22 123 -57 30 -19 78 -59 106 -89 54 -58 47 -55 197 -72
76 -8 214 -7 267 3 56 11 132 37 170 59 67 39 146 140 158 202 6 32 10 50 12
50 1 0 3 20 4 45 8 193 -85 325 -269 383 -57 18 -94 25 -180 33 -33 3 -64 6
-70 7 -5 2 -59 0 -120 -4z"/>
<path d="M3864 5050 c-3 -3 -9 -5 -12 -6 -56 -4 -172 -66 -200 -106 -8 -10
-22 -26 -32 -36 -26 -25 -69 -115 -76 -159 -3 -21 -7 -40 -9 -43 -2 -3 3 -19
10 -37 24 -56 85 -81 136 -56 36 18 43 28 63 93 15 45 76 137 76 114 0 -4 8 0
18 9 17 16 44 21 147 31 97 10 137 99 76 168 -27 31 -31 32 -110 33 -45 1 -84
-2 -87 -5z"/>
<path d="M4414 5042 c-52 -42 -58 -105 -15 -151 16 -17 37 -31 48 -32 133 -7
163 -16 210 -67 18 -19 39 -56 47 -82 8 -27 19 -57 24 -67 11 -19 60 -50 77
-48 68 10 116 63 108 118 -19 137 -104 250 -233 309 -53 25 -80 31 -155 34
-74 3 -94 0 -111 -14z"/>
<path d="M2120 4748 c1 -13 1 -25 0 -28 -1 -3 -3 -16 -6 -30 -4 -24 -40 -142
-50 -166 -3 -7 15 -17 47 -24 55 -13 216 -76 235 -91 8 -6 25 11 52 53 23 35
57 81 77 103 l36 40 -30 25 c-38 32 -157 93 -216 111 -5 1 -30 8 -54 16 -68
20 -93 18 -91 -9z"/>
<path d="M6085 4746 c-124 -40 -255 -114 -255 -142 0 -8 12 -27 28 -42 15 -15
45 -55 67 -87 21 -33 40 -62 42 -64 1 -2 38 11 80 29 43 18 85 34 93 35 8 2
16 4 18 5 1 2 7 4 12 5 6 1 12 4 15 5 8 4 17 7 53 15 33 8 38 14 24 31 -15 16
-53 152 -55 194 -1 36 -4 40 -27 40 -14 -1 -56 -11 -95 -24z"/>
<path d="M4153 4560 c-75 -18 -142 -63 -186 -126 -17 -25 -32 -49 -33 -52 0
-4 -5 -16 -10 -27 -5 -11 -9 -58 -9 -105 0 -74 4 -92 29 -140 35 -68 85 -115
156 -148 95 -45 244 -30 315 30 82 69 123 140 132 231 22 218 -180 391 -394
337z"/>
<path d="M2847 4469 c-81 -13 -147 -71 -219 -191 l-42 -71 27 -51 c31 -58 48
-102 53 -131 11 -64 14 -68 44 -62 146 30 350 214 350 317 0 67 -65 157 -133
184 -21 8 -48 10 -80 5z"/>
<path d="M5424 4460 c-38 -6 -61 -17 -106 -53 -10 -8 -18 -19 -18 -26 0 -6 -4
-11 -9 -11 -12 0 -33 -53 -36 -93 -5 -48 21 -92 96 -167 68 -67 208 -149 242
-141 4 0 17 -3 27 -9 18 -10 20 -7 20 20 0 16 0 32 0 35 0 13 52 119 70 145
21 29 21 29 1 67 -77 151 -195 246 -287 233z"/>
<path d="M3510 4370 c-51 -9 -79 -27 -86 -55 -3 -14 -10 -25 -15 -25 -5 0 -8
-3 -7 -7 1 -5 -4 -33 -11 -64 -29 -134 28 -301 134 -391 11 -10 26 -22 32 -28
38 -32 108 -38 153 -15 34 17 52 46 55 88 3 29 -26 65 -100 124 -31 25 -73
122 -70 162 1 15 8 51 16 80 12 49 12 56 -7 89 -24 41 -46 51 -94 42z"/>
<path d="M4881 4356 c-27 -29 -36 -79 -21 -115 39 -96 -7 -222 -102 -279 -51
-30 -69 -109 -36 -150 18 -21 64 -42 100 -45 75 -7 190 101 238 223 24 62 33
184 17 233 -37 116 -62 146 -129 151 -38 3 -50 0 -67 -18z"/>
<path d="M1575 4235 c-57 -19 -78 -32 -112 -70 -68 -75 -84 -160 -50 -260 27
-78 71 -119 162 -149 75 -26 118 -31 255 -29 261 4 562 115 577 213 3 21 -56
116 -81 132 -6 3 -24 17 -39 30 -22 20 -191 100 -219 104 -5 1 -10 3 -13 4 -6
3 -8 4 -80 20 -91 20 -102 21 -220 24 -93 3 -121 0 -180 -19z"/>
<path d="M6470 4253 c-14 -2 -58 -11 -97 -19 -40 -8 -74 -15 -75 -14 -6 2
-198 -80 -226 -97 -67 -41 -121 -101 -150 -168 -13 -29 -12 -31 33 -72 26 -24
53 -43 61 -43 8 0 14 -4 14 -10 0 -5 5 -10 11 -10 5 0 29 -9 53 -20 23 -10 54
-21 67 -23 13 -3 44 -10 69 -17 131 -36 372 -47 460 -21 19 5 46 13 60 17 44
13 108 63 140 109 94 136 30 315 -132 372 -40 14 -226 24 -288 16z"/>
<path d="M7994 4228 c-34 -36 -79 -76 -110 -95 -26 -18 -153 -83 -159 -83 -3
0 -6 0 -7 -1 -8 -2 -42 -11 -108 -27 -41 -10 -99 -18 -127 -18 -29 1 -53 -1
-53 -4 0 -3 -49 -4 -110 -3 -107 2 -110 1 -108 -20 2 -34 -12 -118 -23 -139
-6 -11 -8 -22 -6 -25 3 -2 -10 -35 -29 -71 -37 -72 -89 -137 -142 -176 l-32
-23 122 -41 c68 -22 141 -44 163 -48 22 -5 42 -9 45 -9 3 -1 16 -5 30 -8 25
-6 62 -12 150 -24 60 -8 317 -7 355 1 17 4 45 9 63 12 19 2 60 13 91 24 158
53 251 149 287 295 2 6 6 21 9 35 4 14 8 54 9 90 5 137 -60 264 -177 344 -77
52 -96 54 -133 14z"/>
<path d="M164 4212 c-65 -42 -123 -104 -149 -158 -14 -29 -16 -64 -13 -210 2
-101 7 -178 13 -182 6 -4 17 -20 25 -36 50 -96 236 -190 420 -212 149 -17 411
-4 523 27 1 0 15 2 31 4 26 4 119 29 156 43 8 3 17 6 20 7 3 1 19 7 35 14 17
6 36 14 44 16 8 4 -7 25 -46 63 -32 31 -71 78 -86 104 -32 55 -66 154 -73 213
-11 88 3 80 -135 81 -154 2 -245 12 -339 39 -80 23 -213 100 -280 162 -38 35
-72 63 -77 63 -6 0 -37 -17 -69 -38z"/>
<path d="M2988 3745 c-2 -1 -23 -5 -48 -8 -50 -7 -112 -23 -151 -40 l-26 -11
23 -57 c28 -67 36 -106 43 -195 2 -18 162 -64 243 -69 43 -3 89 -1 105 6 39
14 91 67 98 98 20 93 12 156 -25 203 -23 30 -129 66 -207 72 -28 2 -53 3 -55
1z"/>
<path d="M5208 3745 c-3 -3 -16 -8 -29 -11 -59 -13 -91 -28 -113 -54 -62 -75
-40 -234 40 -289 49 -34 159 -36 244 -4 8 4 17 6 20 5 3 0 30 12 60 26 l55 27
8 69 c4 39 19 95 32 125 14 30 22 58 18 62 -25 23 -118 42 -219 45 -61 2 -113
2 -116 -1z"/>
<path d="M3975 3718 c-49 -27 -73 -75 -61 -123 9 -34 66 -87 130 -119 65 -33
84 -38 172 -42 178 -8 357 113 322 217 -28 82 -118 95 -189 27 -67 -63 -190
-54 -269 20 -13 12 -26 22 -29 23 -3 0 -17 2 -31 4 -14 2 -35 -2 -45 -7z"/>
<path d="M2408 3555 c-2 -2 -21 -5 -43 -8 -145 -17 -329 -102 -495 -231 -78
-60 -105 -89 -130 -139 -91 -184 10 -362 212 -373 77 -4 116 11 233 89 57 38
225 201 225 218 0 4 6 14 13 21 25 25 99 169 111 216 7 26 12 75 11 110 -3 80
-17 97 -85 98 -27 1 -51 0 -52 -1z"/>
<path d="M5820 3552 c-42 -6 -50 -24 -51 -117 0 -49 35 -185 49 -185 4 0 18
-23 31 -50 14 -28 29 -50 33 -50 4 0 8 -5 8 -11 0 -35 158 -192 265 -263 109
-72 167 -89 246 -72 63 14 80 20 90 32 6 8 16 14 21 14 13 0 66 59 84 95 28
53 26 133 -4 195 -50 103 -193 227 -359 309 -115 57 -281 110 -302 96 -6 -3
-11 -3 -11 2 0 8 -55 11 -100 5z"/>
<path d="M4458 3255 c-50 -28 -118 -145 -144 -246 -19 -72 -26 -170 -14 -190
5 -8 29 -14 57 -16 65 -2 99 -8 153 -23 l45 -12 52 57 c65 71 99 128 117 197
28 107 -4 177 -104 225 -49 23 -128 27 -162 8z"/>
<path d="M3712 3229 c-77 -34 -122 -97 -122 -172 0 -34 52 -148 85 -186 13
-14 38 -43 57 -64 l34 -39 60 9 c32 5 92 8 132 8 81 -1 76 -8 73 90 -4 138
-88 321 -168 363 -32 17 -102 13 -151 -9z"/>
<path d="M1405 3232 c-61 -12 -274 -90 -365 -134 -162 -78 -358 -211 -438
-297 -46 -49 -96 -135 -117 -201 -18 -55 -26 -208 -13 -260 10 -41 41 -113 57
-135 109 -142 266 -204 435 -171 36 7 34 4 40 51 3 22 8 53 11 70 9 44 64 177
81 196 8 8 14 19 14 24 0 9 89 114 131 155 71 67 107 96 181 146 45 30 85 54
89 54 9 0 0 31 -11 40 -16 13 -63 121 -78 179 -20 74 -21 189 -2 246 14 41 13
43 -15 37z"/>
<path d="M6891 3208 c37 -129 23 -266 -42 -396 -30 -59 -36 -78 -26 -84 8 -4
37 -23 66 -43 29 -19 55 -35 57 -35 9 0 55 -41 144 -130 147 -146 210 -266
235 -449 4 -28 20 -40 55 -42 14 -1 43 -2 65 -3 137 -7 291 88 363 223 88 164
69 320 -59 482 -62 77 -104 116 -244 227 -31 24 -181 112 -192 112 -7 0 -13 3
-13 8 0 4 -15 14 -32 21 -18 8 -60 27 -93 42 -67 30 -158 62 -223 79 -24 6
-50 14 -57 16 -12 5 -12 0 -4 -28z"/>
<path d="M5536 3142 c-7 -12 -147 -58 -183 -61 -36 -3 -44 -15 -32 -52 22 -71
90 -196 139 -257 l51 -63 71 66 c39 36 77 65 84 65 8 0 14 5 14 10 0 6 6 10
13 10 29 0 36 22 15 44 -28 28 -148 211 -148 224 0 15 -17 24 -24 14z"/>
<path d="M2750 3125 c0 -19 -55 -107 -117 -187 l-43 -57 56 -37 c30 -20 77
-59 104 -85 l49 -48 33 38 c50 59 113 169 142 249 28 80 35 70 -64 93 -30 7
-73 20 -95 30 -49 23 -65 24 -65 4z"/>
<path d="M3319 2803 c-26 -19 -85 -70 -103 -90 -6 -7 -23 -26 -38 -42 -26 -29
-70 -93 -94 -138 -11 -20 -9 -24 34 -44 55 -26 172 -109 172 -122 0 -13 21 12
61 73 20 30 59 80 87 110 28 30 52 60 52 66 0 5 -8 19 -18 30 -38 42 -82 102
-82 113 0 6 -4 11 -10 11 -5 0 -10 6 -10 14 0 27 -25 37 -51 19z"/>
<path d="M4938 2762 c-55 -84 -61 -92 -86 -120 -24 -27 -24 -27 28 -82 44 -47
69 -78 106 -135 37 -55 48 -63 59 -45 12 20 113 89 139 96 14 3 26 10 26 15 0
5 6 9 14 9 8 0 17 4 21 9 5 10 -33 83 -47 89 -4 2 -8 10 -8 18 0 8 -4 14 -10
14 -5 0 -10 4 -10 9 0 19 -171 181 -191 181 -2 0 -21 -26 -41 -58z"/>
<path d="M2295 2625 c-61 -41 -161 -84 -237 -100 -65 -14 -185 -12 -243 4 -32
9 -48 8 -82 -5 -24 -9 -43 -20 -43 -24 0 -4 -11 -11 -25 -14 -14 -4 -25 -11
-25 -16 0 -6 -5 -10 -10 -10 -40 0 -249 -196 -293 -275 -44 -79 -57 -185 -34
-281 16 -64 130 -192 208 -232 95 -49 263 -30 398 44 153 84 297 202 440 364
51 57 187 267 192 298 1 4 5 18 10 31 22 57 26 99 13 136 -14 43 -19 47 -89
80 -84 40 -122 40 -180 0z"/>
<path d="M5925 2652 c-39 -7 -100 -34 -132 -58 -48 -36 -55 -79 -30 -180 8
-31 92 -187 115 -212 6 -7 17 -23 24 -35 29 -56 200 -237 278 -296 19 -14 40
-31 45 -37 13 -15 151 -106 190 -126 85 -44 168 -63 271 -62 87 0 159 32 222
96 47 49 92 113 92 132 0 7 3 16 7 20 10 10 14 34 17 106 3 68 -16 142 -50
197 -30 47 -185 197 -249 240 -83 56 -182 106 -195 98 -49 -30 -282 -28 -335
4 -5 3 -15 6 -21 7 -17 3 -157 74 -174 88 -18 16 -48 23 -75 18z"/>
<path d="M3844 2498 c-108 -43 -229 -168 -317 -328 -40 -73 -84 -182 -92 -232
-3 -18 -10 -47 -14 -65 -26 -93 13 -202 91 -259 51 -38 61 -41 188 -57 46 -5
127 49 186 125 30 38 120 275 109 286 -2 2 0 12 4 21 23 43 36 292 20 376 -5
28 -11 61 -14 75 -13 73 -70 93 -161 58z"/>
<path d="M4336 2491 c-35 -39 -45 -105 -41 -281 1 -91 6 -176 9 -190 3 -14 8
-36 11 -49 26 -131 91 -278 154 -344 37 -40 104 -78 137 -78 174 -2 291 94
295 241 1 40 -11 99 -34 175 -11 39 -21 72 -22 75 0 3 -13 32 -28 64 -69 149
-220 325 -320 374 -26 13 -69 26 -95 29 -39 4 -51 1 -66 -16z"/>
<path d="M2939 2226 c-61 -21 -140 -90 -221 -192 -26 -32 -54 -67 -62 -76 -9
-10 -16 -22 -16 -27 0 -5 -7 -14 -15 -21 -8 -7 -21 -24 -28 -39 -8 -14 -29
-55 -48 -91 -61 -114 -103 -224 -145 -385 -30 -111 -26 -212 11 -305 61 -152
168 -229 342 -244 63 -6 125 11 214 59 27 15 87 77 105 110 74 131 114 243
137 391 10 66 9 73 -11 106 -81 130 -104 309 -63 481 20 83 20 117 0 117 -5 0
-9 6 -9 14 0 15 -95 106 -113 107 -7 0 -19 2 -28 4 -8 1 -31 -3 -50 -9z"/>
<path d="M5271 2205 c-39 -28 -111 -120 -111 -144 0 -9 5 -36 11 -61 27 -109
32 -242 12 -319 -15 -57 -60 -161 -75 -172 -24 -16 -7 -138 41 -299 6 -19 32
-77 58 -128 56 -112 123 -179 211 -213 124 -48 311 -16 394 67 20 19 50 61 67
93 61 115 71 238 30 372 -12 41 -24 82 -26 91 -7 43 -88 230 -130 303 -25 44
-51 90 -57 102 -6 13 -14 23 -18 23 -5 0 -8 5 -8 10 0 6 -5 16 -10 23 -6 7
-27 32 -47 57 -157 189 -262 249 -342 195z"/>
<path d="M3959 1347 c-32 -22 -92 -50 -103 -48 -3 0 -25 -7 -48 -15 -48 -17
-248 -20 -248 -4 0 3 -13 6 -30 7 -25 2 -31 -2 -36 -25 -3 -15 -9 -36 -12 -47
-6 -22 -9 -31 -15 -60 -10 -43 -51 -140 -61 -147 -6 -4 -7 -8 -3 -8 5 0 -1
-16 -13 -35 -12 -19 -18 -35 -13 -35 4 0 3 -4 -2 -8 -6 -4 -23 -29 -39 -55
-30 -53 -119 -148 -179 -193 -22 -15 -67 -42 -100 -59 -66 -34 -66 -32 -53
-113 14 -90 96 -206 184 -260 72 -43 128 -57 227 -57 100 0 152 9 176 31 8 7
20 14 26 14 18 0 93 68 132 120 14 19 32 39 38 43 7 4 13 17 13 27 0 11 4 20
9 20 13 0 87 174 117 272 24 82 29 102 39 156 3 15 8 43 12 62 21 116 37 407
23 430 -4 7 -19 2 -41 -13z"/>
<path d="M4313 1203 c3 -93 8 -179 11 -193 7 -39 28 -169 27 -175 0 -2 6 -23
14 -46 8 -23 12 -45 9 -50 -3 -5 0 -9 5 -9 6 0 11 -8 11 -17 0 -45 107 -282
152 -339 51 -64 131 -134 183 -160 56 -27 67 -29 180 -29 128 1 184 16 258 68
90 63 160 175 172 278 l7 56 -44 17 c-90 37 -218 144 -281 236 -17 25 -34 47
-39 48 -4 2 -8 8 -8 14 0 5 -8 22 -18 36 -10 15 -33 61 -51 102 -18 41 -37 84
-42 95 -5 11 -11 31 -13 45 -3 14 -5 26 -7 28 -1 1 -2 5 -3 10 -1 4 -6 22 -10
40 -9 36 -6 36 -106 17 -34 -6 -160 -6 -187 0 -78 18 -120 34 -171 67 -24 15
-46 28 -49 28 -3 0 -3 -75 0 -167z"/>
</g>
</svg>
