<svg xmlns="http://www.w3.org/2000/svg" viewBox="0 0 420.79 142.35"><defs><style>.cls-1{fill:#231f20;}</style></defs><title>amarahotels-logo-vertical</title><g id="Layer_2" data-name="Layer 2"><g id="Layer_1-2" data-name="Layer 1"><path class="cls-1" d="M-7493.62,1312.47a12,12,0,0,1-4.92,3.6,17.74,17.74,0,0,1-6.92,1.28q-6.57,0-10.52-3.6a12.24,12.24,0,0,1-4-9.52,11.38,11.38,0,0,1,4.72-9.72c3.14-2.32,7.55-3.48,13.2-3.48h7v-1.68c0-3-.55-5.18-1.64-6.44s-2.95-1.88-5.56-1.88a18.87,18.87,0,0,0-6.6,1.2,20.58,20.58,0,0,0-6,3.44l-3.2-4.88a20.82,20.82,0,0,1,7.12-4.16,25.69,25.69,0,0,1,8.72-1.52q6.63,0,10.16,3.44t3.52,9.92v15.92q0,6.33,3.44,9.2l-4.24,4a11.56,11.56,0,0,1-4.32-5.12m-4.28-3.72a9.08,9.08,0,0,0,2.84-6.92V1297h-7c-4,0-6.9.58-8.68,1.72a6,6,0,0,0-2.68,5.48,6.86,6.86,0,0,0,2.12,5.36,8.43,8.43,0,0,0,5.88,1.92,10.46,10.46,0,0,0,7.48-2.68" transform="translate(7519.94 -1175.32)"/><path class="cls-1" d="M-7477.34,1283.19a9.69,9.69,0,0,0-2.84-4.08l4.08-4a11,11,0,0,1,4.72,6,14.86,14.86,0,0,1,5.28-4.23,14.58,14.58,0,0,1,6.32-1.45,13.49,13.49,0,0,1,6.44,1.57,11.4,11.4,0,0,1,4.6,4.51,15.56,15.56,0,0,1,5.56-4.51,15.08,15.08,0,0,1,6.6-1.57,12.57,12.57,0,0,1,9.24,3.61q3.63,3.59,3.56,9.68l-.32,27.91h-6.16l.08-27c0-2.77-.55-4.83-1.64-6.2a6.28,6.28,0,0,0-5.16-2,9.67,9.67,0,0,0-5.76,1.72,14.62,14.62,0,0,0-4.24,5.24v28.32h-6.4v-27a9.7,9.7,0,0,0-1.68-6.12,6,6,0,0,0-5-2.12,10.59,10.59,0,0,0-6.08,1.92,11.32,11.32,0,0,0-4.08,4.8v28.56h-6.4v-28.4a15.88,15.88,0,0,0-.76-5" transform="translate(7519.94 -1175.32)"/><path class="cls-1" d="M-7389.38,1312.47a12,12,0,0,1-4.92,3.6,17.78,17.78,0,0,1-6.92,1.28q-6.57,0-10.52-3.6a12.24,12.24,0,0,1-4-9.52,11.38,11.38,0,0,1,4.72-9.72q4.71-3.48,13.2-3.48h7v-1.68c0-3-.55-5.18-1.64-6.44s-2.95-1.88-5.56-1.88a18.87,18.87,0,0,0-6.6,1.2,20.58,20.58,0,0,0-6,3.44l-3.2-4.88a20.82,20.82,0,0,1,7.12-4.16,25.69,25.69,0,0,1,8.72-1.52q6.63,0,10.16,3.44t3.52,9.92v15.92q0,6.33,3.44,9.2l-4.24,4a11.56,11.56,0,0,1-4.32-5.12m-4.28-3.72a9.08,9.08,0,0,0,2.84-6.92V1297h-7c-4,0-6.9.58-8.68,1.72a6,6,0,0,0-2.68,5.48,6.83,6.83,0,0,0,2.12,5.36,8.43,8.43,0,0,0,5.88,1.92,10.46,10.46,0,0,0,7.48-2.68" transform="translate(7519.94 -1175.32)"/><path class="cls-1" d="M-7350.34,1276l-.16,6.32a21,21,0,0,0-5.2-.88,8.78,8.78,0,0,0-5.84,1.76,16.81,16.81,0,0,0-4.16,5.12v28.32h-6.56v-28.32q0-6.24-3.36-9.12l4.4-4.08a10.43,10.43,0,0,1,2.44,2.16,13.33,13.33,0,0,1,2,3.28,15.33,15.33,0,0,1,3.6-3.44,13.33,13.33,0,0,1,7.28-1.92,23.54,23.54,0,0,1,5.52.8" transform="translate(7519.94 -1175.32)"/><path class="cls-1" d="M-7319.78,1312.47a12,12,0,0,1-4.92,3.6,17.78,17.78,0,0,1-6.92,1.28q-6.57,0-10.52-3.6a12.24,12.24,0,0,1-4-9.52,11.38,11.38,0,0,1,4.72-9.72q4.71-3.48,13.2-3.48h7v-1.68c0-3-.55-5.18-1.64-6.44s-3-1.88-5.56-1.88a18.87,18.87,0,0,0-6.6,1.2,20.58,20.58,0,0,0-6,3.44l-3.2-4.88a20.82,20.82,0,0,1,7.12-4.16,25.69,25.69,0,0,1,8.72-1.52q6.63,0,10.16,3.44t3.52,9.92v15.92q0,6.33,3.44,9.2l-4.24,4a11.56,11.56,0,0,1-4.32-5.12m-4.28-3.72a9.08,9.08,0,0,0,2.84-6.92V1297h-7c-4,0-6.9.58-8.68,1.72a6,6,0,0,0-2.68,5.48,6.83,6.83,0,0,0,2.12,5.36,8.43,8.43,0,0,0,5.88,1.92,10.46,10.46,0,0,0,7.48-2.68" transform="translate(7519.94 -1175.32)"/><path class="cls-1" d="M-7295.78,1258.39v21.84a16.17,16.17,0,0,1,12.24-5q6.55,0,10,3.6t3.48,9.92v27.92h-6.56v-27a10.18,10.18,0,0,0-1.68-6.28c-1.12-1.46-3-2.2-5.76-2.2a10.72,10.72,0,0,0-6.28,1.76,26.8,26.8,0,0,0-5.48,5.6v28.16h-6.56v-58.24Z" transform="translate(7519.94 -1175.32)"/><path class="cls-1" d="M-7251.9,1314.63a19,19,0,0,1-7.08-7.48,22.31,22.31,0,0,1-2.56-10.76,22.47,22.47,0,0,1,2.6-10.84,19.5,19.5,0,0,1,7.12-7.59,19.08,19.08,0,0,1,10.2-2.77,19.37,19.37,0,0,1,10.2,2.73,19,19,0,0,1,7.08,7.55,22.91,22.91,0,0,1,2.56,10.84,22.64,22.64,0,0,1-2.56,10.8,19,19,0,0,1-7.12,7.52,19.56,19.56,0,0,1-10.24,2.72,19.32,19.32,0,0,1-10.2-2.72m19.92-7.36q3.63-4.15,3.64-11t-3.64-11a12.2,12.2,0,0,0-9.64-4.16,12.65,12.65,0,0,0-7,1.93,12.75,12.75,0,0,0-4.72,5.35,17.87,17.87,0,0,0-1.68,7.92q0,6.81,3.68,11a12.28,12.28,0,0,0,9.68,4.16,12.16,12.16,0,0,0,9.64-4.16" transform="translate(7519.94 -1175.32)"/><path class="cls-1" d="M-7210.1,1314.27q-3.21-3.39-3.2-9.8v-38.24h6.56V1276h12.32v5.92h-12.32v22.55c0,2.62.54,4.43,1.64,5.45a5.51,5.51,0,0,0,3.88,1.51,8.56,8.56,0,0,0,2.6-.32,18.55,18.55,0,0,0,2.68-1.19l3,5.35a13.32,13.32,0,0,1-8.24,2.4q-5.76,0-9-3.4" transform="translate(7519.94 -1175.32)"/><path class="cls-1" d="M-7179.83,1307.67q2.44,3.84,9,3.84a18.49,18.49,0,0,0,6.4-1.08,28.3,28.3,0,0,0,6.25-3.32l3,5a23.57,23.57,0,0,1-7.29,3.88,26.61,26.61,0,0,1-8.71,1.48,17.61,17.61,0,0,1-9.69-2.6,16.73,16.73,0,0,1-6.23-7.12,23.41,23.41,0,0,1-2.16-10.28,28.06,28.06,0,0,1,2.12-10.88,19.44,19.44,0,0,1,6.23-8.24,15.8,15.8,0,0,1,9.81-3.12,16.5,16.5,0,0,1,8.47,2.24,16.31,16.31,0,0,1,6.08,6.2,17.41,17.41,0,0,1,2.24,8.76c0,1.34-.1,3.5-.32,6.48h-27.92a17.76,17.76,0,0,0,2.68,8.8m19.08-14.72v-.8a11.44,11.44,0,0,0-1.39-5.64,10.56,10.56,0,0,0-3.77-4,9.82,9.82,0,0,0-5.23-1.44,9.63,9.63,0,0,0-7.08,3c-2,2-3.33,5-4,8.8Z" transform="translate(7519.94 -1175.32)"/><rect class="cls-1" x="375.36" y="83.07" width="6.4" height="58.24"/><path class="cls-1" d="M-7129.55,1310.63l3.76-4.4a24.46,24.46,0,0,0,5.76,3.88,13.72,13.72,0,0,0,5.76,1.24,10,10,0,0,0,6.2-1.72,5.62,5.62,0,0,0,2.28-4.76,4.5,4.5,0,0,0-.92-3,7.77,7.77,0,0,0-2.64-2q-1.71-.84-5.72-2.44a68.51,68.51,0,0,1-6.84-3.08,11.19,11.19,0,0,1-3.88-3.36,8.58,8.58,0,0,1-1.44-5.08,10.09,10.09,0,0,1,3.52-8,13.5,13.5,0,0,1,9.12-3,21.21,21.21,0,0,1,6.6,1.08,14.81,14.81,0,0,1,5.24,2.76l-2.8,4.72a13.82,13.82,0,0,0-8.4-2.64,8.46,8.46,0,0,0-4.84,1.24,3.92,3.92,0,0,0-1.8,3.4,4,4,0,0,0,1.8,3.48,34.21,34.21,0,0,0,6.2,3,67.46,67.46,0,0,1,7.76,3.6,12.51,12.51,0,0,1,4.24,3.72,9.28,9.28,0,0,1,1.44,5.32,11.44,11.44,0,0,1-4.16,9.2,16,16,0,0,1-10.72,3.52,21.33,21.33,0,0,1-15.52-6.72" transform="translate(7519.94 -1175.32)"/><path class="cls-1" d="M-7313.92,1239.26h-.16a3,3,0,0,1-3.07-3,9.84,9.84,0,0,1,2.78-5.86,4.3,4.3,0,0,1,2.8-1.5c.42,0,1.54,0,1.54,3.56a11.84,11.84,0,0,1-.87,4.26c-.51,1.18-1.44,2.59-3,2.59" transform="translate(7519.94 -1175.32)"/><path class="cls-1" d="M-7313.31,1227.88c-.87-.76-3.18-3-1.78-4.9a3,3,0,0,1,2.25-1.07,1.91,1.91,0,0,1,1.23.4,6,6,0,0,1,1.4,5.47s0,0,0,0a4,4,0,0,0-1.44-.26,4,4,0,0,0-1.64.34" transform="translate(7519.94 -1175.32)"/><path class="cls-1" d="M-7304.92,1239.26c-1.58,0-2.52-1.41-3-2.59a11.67,11.67,0,0,1-.88-4.26c0-3.56,1.12-3.56,1.54-3.56a4.3,4.3,0,0,1,2.81,1.5c1.56,1.6,2.81,4.23,2.77,5.86a3,3,0,0,1-3.06,3h-.16" transform="translate(7519.94 -1175.32)"/><path class="cls-1" d="M-7305.54,1227.88a4,4,0,0,0-1.64-.34,4,4,0,0,0-1.44.26h0l0,0a6,6,0,0,1,1.41-5.47,1.86,1.86,0,0,1,1.22-.4,3,3,0,0,1,2.25,1.07c1.41,1.86-.9,4.14-1.78,4.9" transform="translate(7519.94 -1175.32)"/><path class="cls-1" d="M-7302.64,1252.43c-4.46,0-6-7.15-6-10.41a15.65,15.65,0,0,1,.25-3,4.22,4.22,0,0,0,3.43,1.79h.24a5.35,5.35,0,0,0,2.07-.51,11.38,11.38,0,0,0,1.85,5,5.8,5.8,0,0,0,3.06,2.19,2.72,2.72,0,0,1,0,.28c-.07,2.76-1.82,4.51-4.7,4.67h-.25" transform="translate(7519.94 -1175.32)"/><path class="cls-1" d="M-7316.21,1252.43h-.24c-2.88-.16-4.64-1.91-4.7-4.67v-.28a5.87,5.87,0,0,0,3.07-2.19,11.64,11.64,0,0,0,1.85-5,5.25,5.25,0,0,0,2.06.51h.25a4.22,4.22,0,0,0,3.42-1.79,14.88,14.88,0,0,1,.25,3c0,3.26-1.5,10.41-6,10.41" transform="translate(7519.94 -1175.32)"/><path class="cls-1" d="M-7322.58,1246.12a4.83,4.83,0,0,1-2.63-.86l-.18-.12c-1.4-1-1.85-2.85-1.3-5.3a15.77,15.77,0,0,1,2.41-5.31c1.46-2,2.67-3,3.68-3a1.68,1.68,0,0,1,1,.35,4.3,4.3,0,0,1,1.38,1.88,7.5,7.5,0,0,0-.47,2.48,4.71,4.71,0,0,0,1.05,3,10.77,10.77,0,0,1-1.67,5.15,4.06,4.06,0,0,1-3.26,1.78" transform="translate(7519.94 -1175.32)"/><path class="cls-1" d="M-7296.26,1246.12a4.09,4.09,0,0,1-3.27-1.78,10.88,10.88,0,0,1-1.66-5.15,4.64,4.64,0,0,0,1-3,7.22,7.22,0,0,0-.46-2.48,4.28,4.28,0,0,1,1.37-1.88,1.71,1.71,0,0,1,1-.35c1,0,2.22,1,3.69,3,1.7,2.34,4.34,8.26,1.11,10.61l-.19.12a4.8,4.8,0,0,1-2.62.86" transform="translate(7519.94 -1175.32)"/><path class="cls-1" d="M-7317.51,1232.1a5.14,5.14,0,0,0-1.2-1.22,5.18,5.18,0,0,0-1.68-.8l-.07,0a.21.21,0,0,1-.07-.25,8.26,8.26,0,0,1,3.71-4.12,7.83,7.83,0,0,0,2,3,6.77,6.77,0,0,0-.69.63,12.71,12.71,0,0,0-2,2.84" transform="translate(7519.94 -1175.32)"/><path class="cls-1" d="M-7301.34,1232.1a12.37,12.37,0,0,0-2-2.84,8,8,0,0,0-.69-.63,8,8,0,0,0,2-3,8.31,8.31,0,0,1,3.71,4.12.22.22,0,0,1-.08.25l-.07,0a5.23,5.23,0,0,0-1.67.8,5.18,5.18,0,0,0-1.21,1.22" transform="translate(7519.94 -1175.32)"/><path class="cls-1" d="M-7288.31,1227.42a3.66,3.66,0,0,1-1.06-.17,9.81,9.81,0,0,1-4.72-4.45,4.35,4.35,0,0,1-.56-3.13c.13-.4.41-.85,1.45-.85a8.29,8.29,0,0,1,2.42.48,11.87,11.87,0,0,1,3.78,2.16c1,.84,2,2.17,1.53,3.67l-.06.15a3,3,0,0,1-2.78,2.14" transform="translate(7519.94 -1175.32)"/><path class="cls-1" d="M-7299.41,1222.14a2.16,2.16,0,0,1-1.9-.94,3,3,0,0,1-.33-2.47,1.88,1.88,0,0,1,.76-1,4.75,4.75,0,0,1,2.39-.54,5.77,5.77,0,0,1,3.25.9s0,0,0,0a3.91,3.91,0,0,0-.69,1.29,3.89,3.89,0,0,0-.18,1.67,7.27,7.27,0,0,1-3.31,1.11" transform="translate(7519.94 -1175.32)"/><path class="cls-1" d="M-7286.94,1218.68a12,12,0,0,1-3.47-.52,6,6,0,0,1-2.71-1.46,1.1,1.1,0,0,1-.2-1.11,4.28,4.28,0,0,1,2.29-2.2,11.11,11.11,0,0,1,4.68-1.08,5.45,5.45,0,0,1,1.75.25,3,3,0,0,1,2,3.85c0,.06,0,.11,0,.16C-7283,1217.53-7284,1218.68-7286.94,1218.68Z" transform="translate(7519.94 -1175.32)"/><path class="cls-1" d="M-7294.75,1216.56a6.06,6.06,0,0,1-4.78-3,1.9,1.9,0,0,1,0-1.29,3,3,0,0,1,1.72-1.81,2.27,2.27,0,0,1,.72-.12c1.81,0,3,2.43,3.39,3.33a3.91,3.91,0,0,0-.83,1.45,3.86,3.86,0,0,0-.2,1.45l0,0Z" transform="translate(7519.94 -1175.32)"/><path class="cls-1" d="M-7275.95,1221.7a17.88,17.88,0,0,1-5.25-.79,14.35,14.35,0,0,1-2.77-1.16,4.19,4.19,0,0,0,2.75-2.7,2.17,2.17,0,0,0,.07-.24,5.14,5.14,0,0,0,.15-2.12,15.91,15.91,0,0,0,2.43.2,8.73,8.73,0,0,0,2.89-.42,5.81,5.81,0,0,0,3-2.24l.26.09c2.62.91,3.74,3.12,3,5.91,0,.08,0,.16-.07.23-.48,1.48-2,3.24-6.49,3.24" transform="translate(7519.94 -1175.32)"/><path class="cls-1" d="M-7278,1234.88a5.65,5.65,0,0,1-1.63-.26l-.25-.08a5.93,5.93,0,0,0-1.14-3.6,11.66,11.66,0,0,0-4.18-3.3,5.25,5.25,0,0,0,1.13-1.8c0-.08.06-.16.08-.23a4.22,4.22,0,0,0-.64-3.81,14.83,14.83,0,0,1,2.92.69c3.11,1,9.44,4.64,8.06,8.88a2.09,2.09,0,0,1-.08.23C-7274.56,1233.71-7276.07,1234.88-7278,1234.88Z" transform="translate(7519.94 -1175.32)"/><path class="cls-1" d="M-7285.54,1238.53a6.75,6.75,0,0,1-3.33-1.08,16,16,0,0,1-4.3-3.93c-1.47-2-2-3.47-1.71-4.43a1.61,1.61,0,0,1,.64-.84,4.2,4.2,0,0,1,2.2-.72,7.58,7.58,0,0,0,2.22,1.21,5.31,5.31,0,0,0,1.5.23,4.27,4.27,0,0,0,1.63-.32,10.89,10.89,0,0,1,4.38,3.18,4.05,4.05,0,0,1,.68,3.65,4.76,4.76,0,0,1-1.62,2.24l-.18.13a3.48,3.48,0,0,1-2.11.68" transform="translate(7519.94 -1175.32)"/><path class="cls-1" d="M-7278.57,1213.34a15,15,0,0,1-3-.34,4.64,4.64,0,0,0-2.48-1.91,7.07,7.07,0,0,0-2.26-.32h-.24a4.23,4.23,0,0,1-1.36-1.89,1.72,1.72,0,0,1,0-1.05c.31-1,1.62-1.8,4-2.58a16.29,16.29,0,0,1,4.63-.69c4,0,5.37,1.59,5.8,2.92a1.29,1.29,0,0,1,.06.21,4.88,4.88,0,0,1,0,2.76,4.07,4.07,0,0,1-2.7,2.56A7.34,7.34,0,0,1-7278.57,1213.34Z" transform="translate(7519.94 -1175.32)"/><path class="cls-1" d="M-7296.38,1228.53a.23.23,0,0,1-.14,0,8.26,8.26,0,0,1-2.77-4.81,7.76,7.76,0,0,0,3.44-1,8,8,0,0,0,.39.85,12.38,12.38,0,0,0,2.07,2.81,5,5,0,0,0-1.53.77,4.93,4.93,0,0,0-1.28,1.34l-.06,0a.17.17,0,0,1-.12,0" transform="translate(7519.94 -1175.32)"/><path class="cls-1" d="M-7292.53,1212.45a7.77,7.77,0,0,0-2.19-2.84,8.2,8.2,0,0,1,5.06-2.25.21.21,0,0,1,.22.15.09.09,0,0,1,0,.07,5.34,5.34,0,0,0,.25,1.84,5.4,5.4,0,0,0,.79,1.53,12.14,12.14,0,0,0-3.33,1,8.93,8.93,0,0,0-.81.45" transform="translate(7519.94 -1175.32)"/><path class="cls-1" d="M-7330.53,1227.42a3,3,0,0,1-2.79-2.14s0-.1-.05-.15c-.49-1.5.56-2.83,1.52-3.67a11.91,11.91,0,0,1,3.79-2.16,8.3,8.3,0,0,1,2.41-.48c1,0,1.32.45,1.45.85a4.3,4.3,0,0,1-.56,3.13c-1,2-3.15,4-4.71,4.45A3.71,3.71,0,0,1-7330.53,1227.42Z" transform="translate(7519.94 -1175.32)"/><path class="cls-1" d="M-7319.44,1222.14a7.31,7.31,0,0,1-3.31-1.11,3.88,3.88,0,0,0-.17-1.67,4.12,4.12,0,0,0-.7-1.29s0,0,0,0a5.79,5.79,0,0,1,3.25-.9,4.7,4.7,0,0,1,2.39.54,1.88,1.88,0,0,1,.76,1,2.92,2.92,0,0,1-.32,2.47A2.19,2.19,0,0,1-7319.44,1222.14Z" transform="translate(7519.94 -1175.32)"/><path class="cls-1" d="M-7331.9,1218.68c-3,0-3.94-1.15-4.25-2.11,0,0,0-.1-.05-.16a3,3,0,0,1,1.95-3.85,5.52,5.52,0,0,1,1.76-.25,11,11,0,0,1,4.67,1.08,4.33,4.33,0,0,1,2.3,2.2c.13.4.47,1.47-2.91,2.57a12.16,12.16,0,0,1-3.47.52" transform="translate(7519.94 -1175.32)"/><path class="cls-1" d="M-7324.09,1216.56l0,0a4.06,4.06,0,0,0-.19-1.45,3.93,3.93,0,0,0-.84-1.45c.39-.9,1.59-3.33,3.39-3.33a2.37,2.37,0,0,1,.73.12,2.93,2.93,0,0,1,1.71,1.81,1.9,1.9,0,0,1,0,1.29,6,6,0,0,1-4.77,3Z" transform="translate(7519.94 -1175.32)"/><path class="cls-1" d="M-7342.9,1221.7c-4.49,0-6-1.76-6.48-3.24a1.55,1.55,0,0,1-.07-.23c-.74-2.79.38-5,3-5.91l.26-.09a5.81,5.81,0,0,0,3,2.24,8.8,8.8,0,0,0,2.9.42,15.79,15.79,0,0,0,2.42-.2,5.51,5.51,0,0,0,.15,2.12c0,.08.05.16.07.24a4.23,4.23,0,0,0,2.76,2.7,14.35,14.35,0,0,1-2.77,1.16,18,18,0,0,1-5.26.79" transform="translate(7519.94 -1175.32)"/><path class="cls-1" d="M-7340.83,1234.88a4.55,4.55,0,0,1-4.28-3.28l-.08-.23c-.75-2.31.85-4.33,2.32-5.62a17.76,17.76,0,0,1,5.74-3.26,14.9,14.9,0,0,1,2.93-.69,4.22,4.22,0,0,0-.65,3.81l.09.23a5.39,5.39,0,0,0,1.12,1.8,11.61,11.61,0,0,0-4.17,3.3,5.8,5.8,0,0,0-1.14,3.6l-.26.08a5.58,5.58,0,0,1-1.62.26" transform="translate(7519.94 -1175.32)"/><path class="cls-1" d="M-7333.31,1238.53a3.52,3.52,0,0,1-2.11-.68l-.17-.13a4.79,4.79,0,0,1-1.63-2.24,4.05,4.05,0,0,1,.68-3.65,10.86,10.86,0,0,1,4.39-3.18,4.27,4.27,0,0,0,1.63.32,5.19,5.19,0,0,0,1.49-.23,7.46,7.46,0,0,0,2.22-1.21,4.23,4.23,0,0,1,2.21.72,1.72,1.72,0,0,1,.64.84c.31,1-.25,2.41-1.72,4.43a15.66,15.66,0,0,1-4.3,3.93,6.69,6.69,0,0,1-3.33,1.08" transform="translate(7519.94 -1175.32)"/><path class="cls-1" d="M-7340.28,1213.34a7.32,7.32,0,0,1-2.37-.33,4.05,4.05,0,0,1-2.7-2.56,4.79,4.79,0,0,1,0-2.76c0-.07,0-.15.06-.21.43-1.33,1.79-2.92,5.81-2.92a16.21,16.21,0,0,1,4.62.69c2.37.78,3.68,1.62,4,2.58a1.58,1.58,0,0,1,0,1.05,4.2,4.2,0,0,1-1.35,1.89h-.24a7.14,7.14,0,0,0-2.27.32,4.68,4.68,0,0,0-2.48,1.91,15,15,0,0,1-3,.34" transform="translate(7519.94 -1175.32)"/><path class="cls-1" d="M-7322.46,1228.53a.28.28,0,0,1-.13,0l-.05-.06a5,5,0,0,0-1.29-1.34,4.9,4.9,0,0,0-1.53-.77,12.44,12.44,0,0,0,2.08-2.81c.14-.28.28-.57.39-.85a7.73,7.73,0,0,0,3.44,1,8.31,8.31,0,0,1-2.77,4.81.23.23,0,0,1-.14,0" transform="translate(7519.94 -1175.32)"/><path class="cls-1" d="M-7326.31,1212.45a9.13,9.13,0,0,0-.82-.45,12,12,0,0,0-3.33-1,4.93,4.93,0,0,0,.79-1.53,4.9,4.9,0,0,0,.25-1.84.17.17,0,0,1,0-.07.23.23,0,0,1,.22-.15,8.23,8.23,0,0,1,5.07,2.25,7.77,7.77,0,0,0-2.19,2.84" transform="translate(7519.94 -1175.32)"/><path class="cls-1" d="M-7322.69,1201.28a6.82,6.82,0,0,1-1.16-.1c-2.21-.38-4.76-1.77-5.69-3.11a3,3,0,0,1,.69-4.27l.13-.1a2.52,2.52,0,0,1,1.51-.48,5.94,5.94,0,0,1,3.25,1.34,11.78,11.78,0,0,1,2.41,2.4,6,6,0,0,1,1.34,2.77,1.07,1.07,0,0,1-.49,1A3.31,3.31,0,0,1-7322.69,1201.28Z" transform="translate(7519.94 -1175.32)"/><path class="cls-1" d="M-7319.39,1207.65a2.34,2.34,0,0,1-.71-.1c-2.23-.67-1.7-3.88-1.44-5a3.86,3.86,0,0,0,1.53-.68,4.06,4.06,0,0,0,1-1.06h0a6,6,0,0,1,2.08,5.26,1.89,1.89,0,0,1-.76,1A3,3,0,0,1-7319.39,1207.65Z" transform="translate(7519.94 -1175.32)"/><path class="cls-1" d="M-7317.89,1198.46c-.71,0-1.61-.75-2.68-2.21a12,12,0,0,1-1.8-4c-.28-1.25-.35-2.94.93-3.87l.13-.09a3.56,3.56,0,0,1,1.91-.62A2.93,2.93,0,0,1-7317,1189c1,1.29,1.53,4.15,1.2,6.37a4.29,4.29,0,0,1-1.39,2.86,1.1,1.1,0,0,1-.66.24" transform="translate(7519.94 -1175.32)"/><path class="cls-1" d="M-7313.24,1203.49h-.11a6,6,0,0,1-4.35-3.6s0,0,0,0a4.11,4.11,0,0,0,1.32-.63,3.85,3.85,0,0,0,1.12-1.24c1.16.1,4.37.59,4.32,2.92a2.94,2.94,0,0,1-1.18,2.19,1.94,1.94,0,0,1-1.12.4" transform="translate(7519.94 -1175.32)"/><path class="cls-1" d="M-7324.07,1190.62a14.5,14.5,0,0,1-2-2.28c-1.92-2.64-4.91-9.3-1.3-11.92l.2-.14a5.41,5.41,0,0,1,2.92-1,4.54,4.54,0,0,1,3.63,2l.16.22a5.84,5.84,0,0,0-1.2,3.58,11.56,11.56,0,0,0,1.44,5.12,5.43,5.43,0,0,0-2,.8l-.2.14a4.21,4.21,0,0,0-1.72,3.46" transform="translate(7519.94 -1175.32)"/><path class="cls-1" d="M-7331.2,1194.23a11.46,11.46,0,0,0-4.43-3,6.49,6.49,0,0,0-1.91-.3,5.28,5.28,0,0,0-1.86.33l-.16-.22c-1.58-2.28-1.18-4.73,1.05-6.55l.2-.15a3.9,3.9,0,0,1,2.33-.74,9,9,0,0,1,4.95,2,18.37,18.37,0,0,1,3.66,3.63,15.33,15.33,0,0,1,1.55,2.57,5.2,5.2,0,0,0-1.42-.21,4,4,0,0,0-2.4.78l-.19.15a5.26,5.26,0,0,0-1.37,1.63" transform="translate(7519.94 -1175.32)"/><path class="cls-1" d="M-7331.08,1204.27a11.19,11.19,0,0,1-3.25-.65,15.8,15.8,0,0,1-5.06-2.88c-1.89-1.66-2.6-3.4-2.07-5a1.8,1.8,0,0,1,.08-.21,4.75,4.75,0,0,1,1.62-2.23,3.64,3.64,0,0,1,2.23-.71,5.06,5.06,0,0,1,1.45.22,10.79,10.79,0,0,1,4.38,3.19,4.7,4.7,0,0,0,.88,3,7.57,7.57,0,0,0,1.84,1.74,4.23,4.23,0,0,1,0,2.32,1.67,1.67,0,0,1-.59.87,2.6,2.6,0,0,1-1.5.39" transform="translate(7519.94 -1175.32)"/><path class="cls-1" d="M-7312.51,1191a4.22,4.22,0,0,1-2.21-.71,7.45,7.45,0,0,0-1.09-2.28,4.62,4.62,0,0,0-2.58-1.77,10.93,10.93,0,0,1-1.68-5.15,4.11,4.11,0,0,1,1.6-3.36,4.92,4.92,0,0,1,2.63-.85h.22c2.17,0,3.45,1.9,4.14,3.49a15.71,15.71,0,0,1,1.2,5.74c0,2.49-.4,4-1.22,4.59a1.68,1.68,0,0,1-1,.3" transform="translate(7519.94 -1175.32)"/><path class="cls-1" d="M-7324.1,1206.46a7.82,7.82,0,0,1-4.4-1.21.21.21,0,0,1-.09-.25.15.15,0,0,1,0-.07,5,5,0,0,0,.88-1.64,5,5,0,0,0,.26-1.69,12.3,12.3,0,0,0,3.31,1.11c.31,0,.63.09.93.11a7.71,7.71,0,0,0,.1,3.58,8.6,8.6,0,0,1-1,.06" transform="translate(7519.94 -1175.32)"/><path class="cls-1" d="M-7311.11,1197.7a7.81,7.81,0,0,0-3.38-1.2,8.62,8.62,0,0,0,.19-.91,12.48,12.48,0,0,0,0-3.5,5,5,0,0,0,1.7.28,5,5,0,0,0,1.82-.33h.08a.22.22,0,0,1,.21.16,8.23,8.23,0,0,1-.58,5.51" transform="translate(7519.94 -1175.32)"/><path class="cls-1" d="M-7296.15,1201.28a3.36,3.36,0,0,1-2-.54c-.34-.25-1.24-.9.85-3.78a12,12,0,0,1,2.41-2.4,6,6,0,0,1,3.26-1.34,2.52,2.52,0,0,1,1.51.48l.13.1a3,3,0,0,1,.68,4.27c-.92,1.34-3.48,2.73-5.69,3.11a6.71,6.71,0,0,1-1.15.1" transform="translate(7519.94 -1175.32)"/><path class="cls-1" d="M-7299.46,1207.65a3,3,0,0,1-1.74-.55,1.92,1.92,0,0,1-.75-1,6,6,0,0,1,2.08-5.26h0a4.31,4.31,0,0,0,1,1.06,3.82,3.82,0,0,0,1.52.68c.27,1.13.79,4.34-1.44,5a2.34,2.34,0,0,1-.71.1" transform="translate(7519.94 -1175.32)"/><path class="cls-1" d="M-7300.95,1198.46a1.15,1.15,0,0,1-.67-.24,4.28,4.28,0,0,1-1.38-2.86c-.33-2.22.21-5.08,1.2-6.37a2.91,2.91,0,0,1,2.36-1.29,3.53,3.53,0,0,1,1.9.62l.14.09c1.27.93,1.2,2.62.92,3.87a11.59,11.59,0,0,1-1.8,4C-7299.34,1197.71-7300.24,1198.46-7300.95,1198.46Z" transform="translate(7519.94 -1175.32)"/><path class="cls-1" d="M-7305.6,1203.49a1.92,1.92,0,0,1-1.12-.4,3,3,0,0,1-1.19-2.19c-.05-2.33,3.16-2.82,4.32-2.92a4,4,0,0,0,1.12,1.24,4.21,4.21,0,0,0,1.32.63,0,0,0,0,1,0,0,6,6,0,0,1-4.36,3.6h-.1" transform="translate(7519.94 -1175.32)"/><path class="cls-1" d="M-7294.77,1190.62a4.21,4.21,0,0,0-1.72-3.46l-.2-.14a5.41,5.41,0,0,0-2-.8,11.56,11.56,0,0,0,1.44-5.12,5.83,5.83,0,0,0-1.19-3.58c.05-.08.11-.15.16-.22a4.53,4.53,0,0,1,3.62-2,5.47,5.47,0,0,1,2.93,1l.2.14c2,1.42,1.86,4,1.42,5.91a17.67,17.67,0,0,1-2.72,6,15.64,15.64,0,0,1-2,2.28" transform="translate(7519.94 -1175.32)"/><path class="cls-1" d="M-7287.65,1194.23a5.26,5.26,0,0,0-1.37-1.63l-.19-.15a4,4,0,0,0-2.39-.78,5.21,5.21,0,0,0-1.43.21,15.46,15.46,0,0,1,1.56-2.57,18.55,18.55,0,0,1,3.65-3.63,9.06,9.06,0,0,1,5-2,3.92,3.92,0,0,1,2.33.74l.19.15c2.24,1.82,2.63,4.27,1.05,6.55a2.39,2.39,0,0,1-.16.22,5.23,5.23,0,0,0-1.85-.33,6.61,6.61,0,0,0-1.92.3,11.46,11.46,0,0,0-4.43,3" transform="translate(7519.94 -1175.32)"/><path class="cls-1" d="M-7287.76,1204.27a2.57,2.57,0,0,1-1.5-.39,1.69,1.69,0,0,1-.6-.87,4.23,4.23,0,0,1,0-2.32A7.39,7.39,0,0,0-7288,1199a4.71,4.71,0,0,0,.89-3,10.84,10.84,0,0,1,4.37-3.19,5.07,5.07,0,0,1,1.46-.22,3.66,3.66,0,0,1,2.23.71,4.82,4.82,0,0,1,1.62,2.23,1.72,1.72,0,0,1,.07.21c.54,1.65-.18,3.39-2.06,5a15.73,15.73,0,0,1-5.07,2.88A11.07,11.07,0,0,1-7287.76,1204.27Z" transform="translate(7519.94 -1175.32)"/><path class="cls-1" d="M-7306.33,1191a1.64,1.64,0,0,1-1-.3c-.82-.59-1.22-2.1-1.22-4.59a15.67,15.67,0,0,1,1.19-5.74c.69-1.59,2-3.49,4.14-3.49h.22a4.92,4.92,0,0,1,2.63.85,4.05,4.05,0,0,1,1.6,3.36,10.93,10.93,0,0,1-1.68,5.15,4.65,4.65,0,0,0-2.58,1.77,7.23,7.23,0,0,0-1.08,2.28,4.28,4.28,0,0,1-2.21.71" transform="translate(7519.94 -1175.32)"/><path class="cls-1" d="M-7294.74,1206.46a8.47,8.47,0,0,1-1-.06,7.86,7.86,0,0,0,.09-3.58c.31,0,.62-.06.93-.11a12.18,12.18,0,0,0,3.31-1.11,5.27,5.27,0,0,0,.26,1.69,5.16,5.16,0,0,0,.88,1.64.16.16,0,0,1,0,.07.23.23,0,0,1-.09.25,7.84,7.84,0,0,1-4.4,1.21" transform="translate(7519.94 -1175.32)"/><path class="cls-1" d="M-7307.74,1197.7a8.36,8.36,0,0,1-.58-5.51.22.22,0,0,1,.22-.16h.07a5,5,0,0,0,1.83.33,5,5,0,0,0,1.69-.28,12.47,12.47,0,0,0,0,3.5c.05.31.11.62.18.91a7.86,7.86,0,0,0-3.38,1.2" transform="translate(7519.94 -1175.32)"/><path class="cls-1" d="M-7308.93,1228.88a.49.49,0,0,1-.49.49.49.49,0,0,1-.49-.49.49.49,0,0,1,.49-.49.49.49,0,0,1,.49.49" transform="translate(7519.94 -1175.32)"/><path class="cls-1" d="M-7293.8,1217.17a.48.48,0,0,1,.31.62.49.49,0,0,1-.61.32.5.5,0,0,1-.32-.62.5.5,0,0,1,.62-.32" transform="translate(7519.94 -1175.32)"/><path class="cls-1" d="M-7325,1217.17a.5.5,0,0,0-.31.62.49.49,0,0,0,.62.32.49.49,0,0,0,.31-.62.49.49,0,0,0-.62-.32" transform="translate(7519.94 -1175.32)"/><path class="cls-1" d="M-7318.59,1199.17a.48.48,0,0,0-.68-.11.48.48,0,0,0-.11.68.48.48,0,0,0,.68.11.48.48,0,0,0,.11-.68" transform="translate(7519.94 -1175.32)"/><path class="cls-1" d="M-7300.26,1199.17a.5.5,0,0,1,.69-.11.49.49,0,0,1,.11.68.5.5,0,0,1-.69.11.48.48,0,0,1-.11-.68" transform="translate(7519.94 -1175.32)"/><path class="cls-1" d="M-7308.7,1190.92a.72.72,0,0,1-.72.72.73.73,0,0,1-.73-.72.73.73,0,0,1,.73-.72.72.72,0,0,1,.72.72" transform="translate(7519.94 -1175.32)"/><path class="cls-1" d="M-7288,1206a.73.73,0,0,1-.73.72.72.72,0,0,1-.72-.72.72.72,0,0,1,.72-.72.73.73,0,0,1,.73.72" transform="translate(7519.94 -1175.32)"/><path class="cls-1" d="M-7329.43,1206a.72.72,0,0,1-.72.72.72.72,0,0,1-.72-.72.72.72,0,0,1,.72-.72.72.72,0,0,1,.72.72" transform="translate(7519.94 -1175.32)"/><path class="cls-1" d="M-7321.57,1230.39a.73.73,0,0,1-.73.73.73.73,0,0,1-.72-.73.72.72,0,0,1,.72-.72.73.73,0,0,1,.73.72" transform="translate(7519.94 -1175.32)"/><path class="cls-1" d="M-7295.89,1230.39a.73.73,0,0,1-.72.73.73.73,0,0,1-.72-.73.72.72,0,0,1,.72-.72.72.72,0,0,1,.72.72" transform="translate(7519.94 -1175.32)"/><path class="cls-1" d="M-7309.43,1221.41a4.36,4.36,0,0,1-3.11-1.29,1.5,1.5,0,0,1,0-2.11,1.49,1.49,0,0,1,1.06-.43,1.48,1.48,0,0,1,1,.43,1.42,1.42,0,0,0,1,.42,1.42,1.42,0,0,0,1-.42,1.49,1.49,0,0,1,1.06-.43,1.48,1.48,0,0,1,1.05.43,1.5,1.5,0,0,1,.44,1.06,1.49,1.49,0,0,1-.44,1,4.36,4.36,0,0,1-3.11,1.29" transform="translate(7519.94 -1175.32)"/><path class="cls-1" d="M-7303.92,1218.1a1.48,1.48,0,0,1-1.33-.82,1.47,1.47,0,0,1,.65-2,1.45,1.45,0,0,0,.7-.83,1.4,1.4,0,0,0-.08-1.08,1.47,1.47,0,0,1,.65-2,1.45,1.45,0,0,1,.67-.17,1.48,1.48,0,0,1,1.33.82,4.33,4.33,0,0,1,.26,3.35,4.32,4.32,0,0,1-2.18,2.56,1.45,1.45,0,0,1-.67.17" transform="translate(7519.94 -1175.32)"/><path class="cls-1" d="M-7303.83,1210.24a1.49,1.49,0,0,1-1.47-1.26,1.44,1.44,0,0,0-.56-.92,1.46,1.46,0,0,0-.83-.27l-.23,0-.23,0a1.48,1.48,0,0,1-1.47-1.26,1.49,1.49,0,0,1,1.24-1.71,5.21,5.21,0,0,1,.69,0,4.37,4.37,0,0,1,2.58.84,4.4,4.4,0,0,1,1.76,2.87,1.51,1.51,0,0,1-.27,1.11,1.46,1.46,0,0,1-1,.59,1,1,0,0,1-.24,0" transform="translate(7519.94 -1175.32)"/><path class="cls-1" d="M-7314.92,1218.1a1.49,1.49,0,0,1-.68-.17,4.36,4.36,0,0,1-2.18-2.56,4.38,4.38,0,0,1,.26-3.35,1.51,1.51,0,0,1,1.33-.82,1.46,1.46,0,0,1,.68.17,1.49,1.49,0,0,1,.65,2,1.46,1.46,0,0,0-.09,1.08,1.44,1.44,0,0,0,.71.83,1.49,1.49,0,0,1,.65,2A1.51,1.51,0,0,1-7314.92,1218.1Z" transform="translate(7519.94 -1175.32)"/><path class="cls-1" d="M-7315,1210.24a.86.86,0,0,1-.23,0,1.49,1.49,0,0,1-1-.59,1.46,1.46,0,0,1-.26-1.11,4.32,4.32,0,0,1,1.76-2.87,4.35,4.35,0,0,1,2.58-.84,5.34,5.34,0,0,1,.69,0,1.51,1.51,0,0,1,1.24,1.71,1.49,1.49,0,0,1-1.47,1.26l-.24,0-.23,0a1.42,1.42,0,0,0-.82.27,1.4,1.4,0,0,0-.57.92,1.48,1.48,0,0,1-1.47,1.26" transform="translate(7519.94 -1175.32)"/><path class="cls-1" d="M-7310.38,1213.09a1.63,1.63,0,0,1-1.63,1.63,1.63,1.63,0,0,1-1.63-1.63,1.64,1.64,0,0,1,1.63-1.64,1.64,1.64,0,0,1,1.63,1.64" transform="translate(7519.94 -1175.32)"/><path class="cls-1" d="M-7308.09,1208.67a1.64,1.64,0,0,1,1,2.06,1.62,1.62,0,0,1-2.05,1,1.63,1.63,0,0,1-1-2.06,1.65,1.65,0,0,1,2.06-1" transform="translate(7519.94 -1175.32)"/><path class="cls-1" d="M-7309.08,1213.64a1.63,1.63,0,0,1,2.28-.36,1.63,1.63,0,0,1,.37,2.28,1.65,1.65,0,0,1-2.29.37,1.65,1.65,0,0,1-.36-2.29" transform="translate(7519.94 -1175.32)"/></g></g></svg>