<svg xmlns="http://www.w3.org/2000/svg" viewBox="0 0 508.81 77.1"><defs><style>.cls-1{fill:#231f20;}</style></defs><title>amarahotels-logo</title><g id="Layer_2" data-name="Layer 2"><g id="Layer_1-2" data-name="Layer 1"><path class="cls-1" d="M-7493.8,1077.21a11.86,11.86,0,0,1-4.92,3.6,17.74,17.74,0,0,1-6.92,1.28q-6.55,0-10.52-3.6a12.24,12.24,0,0,1-4-9.52,11.4,11.4,0,0,1,4.72-9.72q4.72-3.48,13.2-3.48h7v-1.68c0-3-.54-5.18-1.64-6.44s-2.94-1.88-5.55-1.88a18.88,18.88,0,0,0-6.61,1.2,20.71,20.71,0,0,0-6,3.44l-3.2-4.88a20.92,20.92,0,0,1,7.12-4.16,25.78,25.78,0,0,1,8.72-1.52q6.64,0,10.16,3.44t3.52,9.92v15.92q0,6.33,3.44,9.2l-4.23,4a11.65,11.65,0,0,1-4.33-5.12m-4.28-3.72a9,9,0,0,0,2.84-6.92v-4.88h-7c-4,0-6.89.58-8.68,1.72a6,6,0,0,0-2.67,5.48,6.83,6.83,0,0,0,2.12,5.36,8.43,8.43,0,0,0,5.88,1.92,10.41,10.41,0,0,0,7.47-2.68" transform="translate(7608.13 -1022.29)"/><path class="cls-1" d="M-7477.51,1047.93a9.69,9.69,0,0,0-2.84-4.08l4.08-4a11,11,0,0,1,4.72,6,14.89,14.89,0,0,1,5.28-4.24,14.56,14.56,0,0,1,6.32-1.44,13.48,13.48,0,0,1,6.44,1.56,11.43,11.43,0,0,1,4.6,4.52,15.59,15.59,0,0,1,5.56-4.52,15.07,15.07,0,0,1,6.6-1.56,12.6,12.6,0,0,1,9.24,3.6q3.63,3.6,3.56,9.68l-.32,27.92h-6.16l.08-27q0-4.15-1.64-6.2t-5.16-2a9.67,9.67,0,0,0-5.76,1.72,14.62,14.62,0,0,0-4.24,5.24v28.32h-6.4v-27a9.7,9.7,0,0,0-1.68-6.12,6,6,0,0,0-5-2.12,10.51,10.51,0,0,0-6.08,1.92,11.32,11.32,0,0,0-4.08,4.8v28.56h-6.4V1053a15.88,15.88,0,0,0-.76-5" transform="translate(7608.13 -1022.29)"/><path class="cls-1" d="M-7389.56,1077.21a11.86,11.86,0,0,1-4.92,3.6,17.74,17.74,0,0,1-6.92,1.28q-6.56,0-10.52-3.6a12.24,12.24,0,0,1-4-9.52,11.4,11.4,0,0,1,4.72-9.72q4.72-3.48,13.2-3.48h7v-1.68c0-3-.54-5.18-1.64-6.44s-2.94-1.88-5.56-1.88a18.87,18.87,0,0,0-6.6,1.2,20.71,20.71,0,0,0-6,3.44l-3.2-4.88a20.92,20.92,0,0,1,7.12-4.16,25.78,25.78,0,0,1,8.72-1.52q6.65,0,10.16,3.44t3.52,9.92v15.92q0,6.33,3.44,9.2l-4.24,4a11.69,11.69,0,0,1-4.32-5.12m-4.28-3.72a9,9,0,0,0,2.84-6.92v-4.88h-7c-4,0-6.89.58-8.68,1.72a6.06,6.06,0,0,0-2.68,5.48,6.86,6.86,0,0,0,2.12,5.36,8.46,8.46,0,0,0,5.88,1.92,10.42,10.42,0,0,0,7.48-2.68" transform="translate(7608.13 -1022.29)"/><path class="cls-1" d="M-7350.52,1040.73l-.15,6.32a21,21,0,0,0-5.2-.88,8.78,8.78,0,0,0-5.84,1.76,16.67,16.67,0,0,0-4.16,5.12v28.32h-6.57v-28.32q0-6.24-3.35-9.12l4.39-4.08a10.45,10.45,0,0,1,2.45,2.16,13.33,13.33,0,0,1,2,3.28,15.5,15.5,0,0,1,3.59-3.44,13.38,13.38,0,0,1,7.28-1.92,23.4,23.4,0,0,1,5.52.8" transform="translate(7608.13 -1022.29)"/><path class="cls-1" d="M-7320,1077.21a11.86,11.86,0,0,1-4.92,3.6,17.74,17.74,0,0,1-6.92,1.28q-6.55,0-10.52-3.6a12.24,12.24,0,0,1-4-9.52,11.4,11.4,0,0,1,4.72-9.72q4.73-3.48,13.2-3.48h7v-1.68c0-3-.54-5.18-1.64-6.44s-2.94-1.88-5.55-1.88a18.88,18.88,0,0,0-6.61,1.2,20.71,20.71,0,0,0-6,3.44l-3.2-4.88a20.92,20.92,0,0,1,7.12-4.16,25.78,25.78,0,0,1,8.72-1.52q6.65,0,10.16,3.44t3.52,9.92v15.92q0,6.33,3.44,9.2l-4.23,4a11.65,11.65,0,0,1-4.33-5.12m-4.28-3.72a9,9,0,0,0,2.84-6.92v-4.88h-7c-4,0-6.89.58-8.68,1.72a6,6,0,0,0-2.67,5.48,6.83,6.83,0,0,0,2.12,5.36,8.43,8.43,0,0,0,5.88,1.92,10.41,10.41,0,0,0,7.47-2.68" transform="translate(7608.13 -1022.29)"/><path class="cls-1" d="M-7296,1023.13V1045a16.17,16.17,0,0,1,12.24-5q6.55,0,10,3.6t3.48,9.92v27.92h-6.56v-27a10.18,10.18,0,0,0-1.68-6.28c-1.12-1.46-3-2.2-5.76-2.2a10.74,10.74,0,0,0-6.28,1.76,27,27,0,0,0-5.48,5.6v28.16h-6.56v-58.24Z" transform="translate(7608.13 -1022.29)"/><path class="cls-1" d="M-7252.08,1079.37a19.1,19.1,0,0,1-7.08-7.48,22.42,22.42,0,0,1-2.56-10.76,22.58,22.58,0,0,1,2.6-10.84,19.6,19.6,0,0,1,7.12-7.6,19.21,19.21,0,0,1,10.2-2.76,19.41,19.41,0,0,1,10.2,2.72,19,19,0,0,1,7.08,7.56,22.79,22.79,0,0,1,2.56,10.84,22.55,22.55,0,0,1-2.56,10.8,18.9,18.9,0,0,1-7.12,7.52,19.53,19.53,0,0,1-10.24,2.72,19.37,19.37,0,0,1-10.2-2.72m19.92-7.36q3.65-4.15,3.64-11t-3.64-11a12.18,12.18,0,0,0-9.64-4.16,12.77,12.77,0,0,0-7,1.92,12.91,12.91,0,0,0-4.72,5.36,17.87,17.87,0,0,0-1.68,7.92q0,6.81,3.68,11a12.29,12.29,0,0,0,9.68,4.16,12.15,12.15,0,0,0,9.64-4.16" transform="translate(7608.13 -1022.29)"/><path class="cls-1" d="M-7210.28,1079q-3.2-3.39-3.2-9.8V1031h6.56v9.76h12.32v5.92h-12.32v22.56q0,3.93,1.64,5.44a5.51,5.51,0,0,0,3.88,1.52,8.47,8.47,0,0,0,2.6-.32,17.3,17.3,0,0,0,2.68-1.2l3,5.36a13.36,13.36,0,0,1-8.24,2.4q-5.76,0-9-3.4" transform="translate(7608.13 -1022.29)"/><path class="cls-1" d="M-7180,1072.41q2.44,3.84,9,3.84a18.53,18.53,0,0,0,6.4-1.08,28.46,28.46,0,0,0,6.24-3.32l3,5a23.4,23.4,0,0,1-7.28,3.88,26.67,26.67,0,0,1-8.72,1.48,17.58,17.58,0,0,1-9.68-2.6,16.82,16.82,0,0,1-6.24-7.12,23.55,23.55,0,0,1-2.16-10.28,28.24,28.24,0,0,1,2.12-10.88,19.38,19.38,0,0,1,6.24-8.24,15.77,15.77,0,0,1,9.8-3.12,16.56,16.56,0,0,1,8.48,2.24,16.38,16.38,0,0,1,6.08,6.2,17.52,17.52,0,0,1,2.24,8.76q0,2-.32,6.48h-27.92a17.66,17.66,0,0,0,2.68,8.8m19.08-14.72v-.8a11.45,11.45,0,0,0-1.4-5.64,10.53,10.53,0,0,0-3.76-4,9.86,9.86,0,0,0-5.24-1.44,9.65,9.65,0,0,0-7.08,3q-3,3-4,8.8Z" transform="translate(7608.13 -1022.29)"/><rect class="cls-1" x="463.37" y="0.84" width="6.4" height="58.24"/><path class="cls-1" d="M-7129.72,1075.37l3.76-4.4a24.46,24.46,0,0,0,5.76,3.88,13.65,13.65,0,0,0,5.76,1.24,10.05,10.05,0,0,0,6.2-1.72,5.62,5.62,0,0,0,2.28-4.76,4.55,4.55,0,0,0-.92-3,7.77,7.77,0,0,0-2.64-2c-1.15-.56-3-1.37-5.72-2.44a68.51,68.51,0,0,1-6.84-3.08,11.1,11.1,0,0,1-3.88-3.36,8.58,8.58,0,0,1-1.44-5.08,10.06,10.06,0,0,1,3.52-8,13.5,13.5,0,0,1,9.12-3,21.21,21.21,0,0,1,6.6,1.08,14.9,14.9,0,0,1,5.24,2.76l-2.8,4.72a13.82,13.82,0,0,0-8.4-2.64,8.44,8.44,0,0,0-4.84,1.24,3.92,3.92,0,0,0-1.8,3.4,4,4,0,0,0,1.8,3.48,34.21,34.21,0,0,0,6.2,3,68.28,68.28,0,0,1,7.76,3.6,12.51,12.51,0,0,1,4.24,3.72,9.28,9.28,0,0,1,1.44,5.32,11.47,11.47,0,0,1-4.16,9.2,16,16,0,0,1-10.72,3.52,21.31,21.31,0,0,1-15.52-6.72" transform="translate(7608.13 -1022.29)"/><path class="cls-1" d="M-7572.38,1086.22h-.16a3,3,0,0,1-3.06-3c0-1.63,1.2-4.26,2.77-5.86a4.34,4.34,0,0,1,2.8-1.5c.43,0,1.55,0,1.55,3.56a11.72,11.72,0,0,1-.88,4.27c-.51,1.18-1.44,2.58-3,2.58" transform="translate(7608.13 -1022.29)"/><path class="cls-1" d="M-7571.76,1074.85c-.88-.76-3.19-3-1.78-4.9a2.93,2.93,0,0,1,2.24-1.08,1.89,1.89,0,0,1,1.23.4,6,6,0,0,1,1.41,5.48l0,0a4.06,4.06,0,0,0-1.45-.26,3.93,3.93,0,0,0-1.63.34" transform="translate(7608.13 -1022.29)"/><path class="cls-1" d="M-7563.38,1086.22c-1.58,0-2.51-1.4-3-2.58a11.72,11.72,0,0,1-.88-4.27c0-3.56,1.12-3.56,1.54-3.56a4.34,4.34,0,0,1,2.81,1.5c1.57,1.6,2.81,4.23,2.77,5.86a3,3,0,0,1-3.06,3h-.16" transform="translate(7608.13 -1022.29)"/><path class="cls-1" d="M-7564,1074.85a3.93,3.93,0,0,0-1.63-.34,4,4,0,0,0-1.44.26h0l0,0a6,6,0,0,1,1.41-5.48,1.89,1.89,0,0,1,1.23-.4,3,3,0,0,1,2.24,1.08c1.41,1.85-.9,4.14-1.78,4.9" transform="translate(7608.13 -1022.29)"/><path class="cls-1" d="M-7561.1,1099.39c-4.45,0-5.95-7.15-5.95-10.41a14.84,14.84,0,0,1,.25-3,4.21,4.21,0,0,0,3.42,1.78h.24a5.31,5.31,0,0,0,2.07-.52,11.63,11.63,0,0,0,1.85,5,5.79,5.79,0,0,0,3.07,2.19v.27c-.07,2.77-1.82,4.52-4.7,4.67h-.25" transform="translate(7608.13 -1022.29)"/><path class="cls-1" d="M-7574.67,1099.39h-.24c-2.88-.15-4.64-1.9-4.7-4.67v-.27a5.83,5.83,0,0,0,3.07-2.19,11.63,11.63,0,0,0,1.85-5,5.3,5.3,0,0,0,2.06.52h.25A4.21,4.21,0,0,0-7569,1086a14.84,14.84,0,0,1,.25,3c0,3.26-1.5,10.41-6,10.41" transform="translate(7608.13 -1022.29)"/><path class="cls-1" d="M-7581,1093.08a4.89,4.89,0,0,1-2.63-.85l-.18-.13c-1.4-1-1.85-2.85-1.29-5.3a15.53,15.53,0,0,1,2.4-5.3c1.47-2,2.67-3,3.69-3a1.64,1.64,0,0,1,1,.35,4.19,4.19,0,0,1,1.37,1.87,7.51,7.51,0,0,0-.47,2.49,4.68,4.68,0,0,0,1.05,2.94,11,11,0,0,1-1.66,5.16,4.08,4.08,0,0,1-3.27,1.77" transform="translate(7608.13 -1022.29)"/><path class="cls-1" d="M-7554.72,1093.08a4.08,4.08,0,0,1-3.27-1.77,11,11,0,0,1-1.66-5.16,4.68,4.68,0,0,0,1-2.94,7.51,7.51,0,0,0-.47-2.49,4.19,4.19,0,0,1,1.37-1.87,1.64,1.64,0,0,1,1-.35c1,0,2.22,1,3.69,3,1.7,2.34,4.34,8.26,1.11,10.6l-.18.13a4.92,4.92,0,0,1-2.63.85" transform="translate(7608.13 -1022.29)"/><path class="cls-1" d="M-7576,1079.07a5.14,5.14,0,0,0-1.2-1.22,5.06,5.06,0,0,0-1.67-.81s-.05,0-.08,0a.25.25,0,0,1-.07-.26,8.31,8.31,0,0,1,3.71-4.12,7.75,7.75,0,0,0,2,3,8.3,8.3,0,0,0-.69.64,12.48,12.48,0,0,0-2,2.84" transform="translate(7608.13 -1022.29)"/><path class="cls-1" d="M-7559.8,1079.07a12.15,12.15,0,0,0-2-2.84,8.3,8.3,0,0,0-.69-.64,7.87,7.87,0,0,0,2-3,8.31,8.31,0,0,1,3.71,4.12.23.23,0,0,1-.08.26.15.15,0,0,1-.07,0,5.06,5.06,0,0,0-1.67.81,5.38,5.38,0,0,0-1.21,1.22" transform="translate(7608.13 -1022.29)"/><path class="cls-1" d="M-7546.77,1074.38a3.64,3.64,0,0,1-1.06-.16c-1.56-.47-3.68-2.47-4.72-4.45a4.29,4.29,0,0,1-.55-3.13c.12-.4.4-.85,1.44-.85a8.29,8.29,0,0,1,2.42.48,11.82,11.82,0,0,1,3.78,2.15c1,.85,2,2.17,1.53,3.67l-.06.15a3,3,0,0,1-2.78,2.14" transform="translate(7608.13 -1022.29)"/><path class="cls-1" d="M-7557.87,1069.11a2.18,2.18,0,0,1-1.9-.94,3,3,0,0,1-.33-2.47,1.93,1.93,0,0,1,.76-1,4.75,4.75,0,0,1,2.39-.54,5.84,5.84,0,0,1,3.25.89l0,0a4,4,0,0,0-.7,1.29,4,4,0,0,0-.18,1.66,7.11,7.11,0,0,1-3.31,1.12" transform="translate(7608.13 -1022.29)"/><path class="cls-1" d="M-7545.4,1065.64a12.16,12.16,0,0,1-3.47-.52,6,6,0,0,1-2.71-1.46,1.08,1.08,0,0,1-.2-1.1,4.33,4.33,0,0,1,2.29-2.21,11.26,11.26,0,0,1,4.68-1.07,5.43,5.43,0,0,1,1.75.24,3,3,0,0,1,2,3.86.83.83,0,0,1,0,.15C-7541.46,1064.5-7542.45,1065.64-7545.4,1065.64Z" transform="translate(7608.13 -1022.29)"/><path class="cls-1" d="M-7553.21,1063.52a6,6,0,0,1-4.77-3,1.84,1.84,0,0,1,0-1.29,3,3,0,0,1,1.72-1.8,2.07,2.07,0,0,1,.72-.13c1.81,0,3,2.43,3.39,3.34a3.76,3.76,0,0,0-.83,1.45,3.86,3.86,0,0,0-.2,1.45Z" transform="translate(7608.13 -1022.29)"/><path class="cls-1" d="M-7534.4,1068.67a18.24,18.24,0,0,1-5.26-.79,15.73,15.73,0,0,1-2.77-1.16,4.26,4.26,0,0,0,2.76-2.71l.06-.23a5.17,5.17,0,0,0,.15-2.12,15.87,15.87,0,0,0,2.43.19,9,9,0,0,0,2.89-.41,5.86,5.86,0,0,0,3-2.24l.27.08c2.61.92,3.73,3.13,3,5.91,0,.08,0,.16-.07.24-.48,1.48-2,3.24-6.48,3.24" transform="translate(7608.13 -1022.29)"/><path class="cls-1" d="M-7536.47,1081.84a5.51,5.51,0,0,1-1.62-.25l-.26-.09a5.86,5.86,0,0,0-1.14-3.59,11.59,11.59,0,0,0-4.17-3.3,5.33,5.33,0,0,0,1.12-1.81,1.55,1.55,0,0,0,.08-.23,4.22,4.22,0,0,0-.64-3.81,16.49,16.49,0,0,1,2.93.69c3.1,1,9.43,4.65,8.06,8.88l-.09.24A4.52,4.52,0,0,1-7536.47,1081.84Z" transform="translate(7608.13 -1022.29)"/><path class="cls-1" d="M-7544,1085.49a6.65,6.65,0,0,1-3.33-1.08,16,16,0,0,1-4.3-3.92c-1.46-2-2-3.47-1.71-4.44a1.62,1.62,0,0,1,.64-.83,4.21,4.21,0,0,1,2.21-.73,7.2,7.2,0,0,0,2.21,1.21,5.31,5.31,0,0,0,1.5.23,4.26,4.26,0,0,0,1.63-.31,10.81,10.81,0,0,1,4.38,3.17,4.08,4.08,0,0,1,.69,3.66,4.88,4.88,0,0,1-1.63,2.23l-.18.14a3.54,3.54,0,0,1-2.11.67" transform="translate(7608.13 -1022.29)"/><path class="cls-1" d="M-7537,1060.31a14.19,14.19,0,0,1-3-.35,4.75,4.75,0,0,0-2.48-1.9,7.16,7.16,0,0,0-2.27-.33h-.24a4.36,4.36,0,0,1-1.36-1.89,1.72,1.72,0,0,1,0-1c.32-1,1.62-1.81,4-2.58a15.81,15.81,0,0,1,4.62-.69c4,0,5.37,1.58,5.8,2.91a1.72,1.72,0,0,1,.07.21,4.79,4.79,0,0,1,0,2.76,4.05,4.05,0,0,1-2.7,2.56A7.29,7.29,0,0,1-7537,1060.31Z" transform="translate(7608.13 -1022.29)"/><path class="cls-1" d="M-7554.84,1075.5a.24.24,0,0,1-.14,0,8.26,8.26,0,0,1-2.77-4.8,7.86,7.86,0,0,0,3.44-1,8,8,0,0,0,.39.85,12.39,12.39,0,0,0,2.08,2.8,5.17,5.17,0,0,0-1.54.77,5.07,5.07,0,0,0-1.28,1.34l-.05.06a.2.2,0,0,1-.13,0" transform="translate(7608.13 -1022.29)"/><path class="cls-1" d="M-7551,1059.42a7.77,7.77,0,0,0-2.19-2.84,8.3,8.3,0,0,1,5.06-2.26.23.23,0,0,1,.23.15s0,0,0,.08a4.93,4.93,0,0,0,.25,1.84,5.08,5.08,0,0,0,.78,1.52,12.49,12.49,0,0,0-3.33,1c-.28.14-.55.3-.81.46" transform="translate(7608.13 -1022.29)"/><path class="cls-1" d="M-7589,1074.38a3,3,0,0,1-2.79-2.14.88.88,0,0,0-.05-.15c-.49-1.5.56-2.82,1.53-3.67a11.82,11.82,0,0,1,3.78-2.15,8.29,8.29,0,0,1,2.42-.48c1,0,1.32.45,1.44.85a4.29,4.29,0,0,1-.55,3.13c-1,2-3.16,4-4.72,4.45A3.69,3.69,0,0,1-7589,1074.38Z" transform="translate(7608.13 -1022.29)"/><path class="cls-1" d="M-7577.9,1069.11a7.1,7.1,0,0,1-3.3-1.12,4,4,0,0,0-.18-1.66,4,4,0,0,0-.7-1.29s0,0,0,0a5.82,5.82,0,0,1,3.25-.89,4.75,4.75,0,0,1,2.39.54,2,2,0,0,1,.76,1,3,3,0,0,1-.33,2.47A2.21,2.21,0,0,1-7577.9,1069.11Z" transform="translate(7608.13 -1022.29)"/><path class="cls-1" d="M-7590.36,1065.64c-3,0-3.94-1.14-4.25-2.11,0,0,0-.1-.05-.15a3,3,0,0,1,1.95-3.86,5.54,5.54,0,0,1,1.76-.24,11.26,11.26,0,0,1,4.68,1.07,4.33,4.33,0,0,1,2.29,2.21c.13.4.47,1.46-2.91,2.56a12.16,12.16,0,0,1-3.47.52" transform="translate(7608.13 -1022.29)"/><path class="cls-1" d="M-7582.55,1063.52h0a4.07,4.07,0,0,0-.2-1.45,3.76,3.76,0,0,0-.83-1.45c.38-.91,1.58-3.34,3.38-3.34a2.08,2.08,0,0,1,.73.13,2.91,2.91,0,0,1,1.71,1.8,1.84,1.84,0,0,1,0,1.29,6,6,0,0,1-4.77,3Z" transform="translate(7608.13 -1022.29)"/><path class="cls-1" d="M-7601.36,1068.67c-4.49,0-6-1.76-6.48-3.24a2.17,2.17,0,0,1-.07-.24c-.74-2.78.38-5,3-5.91l.26-.08a5.88,5.88,0,0,0,3,2.24,9,9,0,0,0,2.89.41,15.87,15.87,0,0,0,2.43-.19,5.33,5.33,0,0,0,.14,2.12c0,.08.05.16.07.23a4.26,4.26,0,0,0,2.76,2.71,15.73,15.73,0,0,1-2.77,1.16,18.24,18.24,0,0,1-5.26.79" transform="translate(7608.13 -1022.29)"/><path class="cls-1" d="M-7599.29,1081.84a4.52,4.52,0,0,1-4.27-3.27l-.09-.24c-.75-2.3.85-4.32,2.33-5.62a17.92,17.92,0,0,1,5.73-3.26,16.49,16.49,0,0,1,2.93-.69,4.22,4.22,0,0,0-.64,3.81,1.55,1.55,0,0,0,.08.23,5.33,5.33,0,0,0,1.12,1.81,11.51,11.51,0,0,0-4.17,3.3,5.79,5.79,0,0,0-1.14,3.59l-.26.09a5.51,5.51,0,0,1-1.62.25" transform="translate(7608.13 -1022.29)"/><path class="cls-1" d="M-7591.76,1085.49a3.59,3.59,0,0,1-2.12-.67l-.17-.14a4.88,4.88,0,0,1-1.63-2.23,4.1,4.1,0,0,1,.68-3.66,10.92,10.92,0,0,1,4.39-3.17,4.26,4.26,0,0,0,1.63.31,5.19,5.19,0,0,0,1.49-.23,7.13,7.13,0,0,0,2.22-1.21,4.21,4.21,0,0,1,2.21.73,1.68,1.68,0,0,1,.64.83c.31,1-.25,2.42-1.71,4.44a15.86,15.86,0,0,1-4.31,3.92,6.59,6.59,0,0,1-3.32,1.08" transform="translate(7608.13 -1022.29)"/><path class="cls-1" d="M-7598.74,1060.31a7.29,7.29,0,0,1-2.37-.34,4.05,4.05,0,0,1-2.7-2.56,4.79,4.79,0,0,1,0-2.76l.06-.21c.44-1.33,1.79-2.91,5.81-2.91a15.87,15.87,0,0,1,4.62.69c2.37.77,3.68,1.61,4,2.58a1.65,1.65,0,0,1,0,1,4.36,4.36,0,0,1-1.36,1.89h-.24a7.11,7.11,0,0,0-2.27.33,4.71,4.71,0,0,0-2.48,1.9,14.33,14.33,0,0,1-3,.35" transform="translate(7608.13 -1022.29)"/><path class="cls-1" d="M-7580.92,1075.5a.2.2,0,0,1-.13,0s0,0-.05-.06a5.11,5.11,0,0,0-1.29-1.34,5.12,5.12,0,0,0-1.53-.77,12.39,12.39,0,0,0,2.08-2.8,8,8,0,0,0,.39-.85,7.86,7.86,0,0,0,3.44,1,8.31,8.31,0,0,1-2.77,4.8.24.24,0,0,1-.14,0" transform="translate(7608.13 -1022.29)"/><path class="cls-1" d="M-7584.77,1059.42c-.26-.16-.53-.32-.81-.46a12.56,12.56,0,0,0-3.34-1,4.88,4.88,0,0,0,.79-1.52,4.93,4.93,0,0,0,.25-1.84s0,0,0-.08a.23.23,0,0,1,.22-.15,8.3,8.3,0,0,1,5.07,2.26,7.77,7.77,0,0,0-2.19,2.84" transform="translate(7608.13 -1022.29)"/><path class="cls-1" d="M-7581.15,1048.25a7,7,0,0,1-1.16-.11A9.79,9.79,0,0,1-7588,1045a3,3,0,0,1,.69-4.26l.13-.1a2.52,2.52,0,0,1,1.51-.48,5.93,5.93,0,0,1,3.25,1.33,12.41,12.41,0,0,1,2.42,2.4,6,6,0,0,1,1.33,2.77,1.09,1.09,0,0,1-.49,1A3.31,3.31,0,0,1-7581.15,1048.25Z" transform="translate(7608.13 -1022.29)"/><path class="cls-1" d="M-7577.84,1054.62a2.37,2.37,0,0,1-.72-.1c-2.22-.67-1.7-3.88-1.44-5a3.89,3.89,0,0,0,1.53-.69,3.87,3.87,0,0,0,1-1h0a6,6,0,0,1,2.08,5.25,1.87,1.87,0,0,1-.76,1A3,3,0,0,1-7577.84,1054.62Z" transform="translate(7608.13 -1022.29)"/><path class="cls-1" d="M-7576.35,1045.43c-.71,0-1.61-.75-2.68-2.22a11.72,11.72,0,0,1-1.79-4c-.29-1.26-.36-2.94.92-3.87l.13-.09a3.5,3.5,0,0,1,1.91-.63,3,3,0,0,1,2.36,1.29c1,1.3,1.53,4.16,1.2,6.38a4.31,4.31,0,0,1-1.39,2.86,1.1,1.1,0,0,1-.66.24" transform="translate(7608.13 -1022.29)"/><path class="cls-1" d="M-7571.7,1050.45h-.11a6,6,0,0,1-4.35-3.6s0,0,0,0a3.94,3.94,0,0,0,1.32-.64,3.66,3.66,0,0,0,1.12-1.24c1.16.1,4.37.6,4.33,2.92a3,3,0,0,1-1.19,2.19,1.94,1.94,0,0,1-1.12.4" transform="translate(7608.13 -1022.29)"/><path class="cls-1" d="M-7582.53,1037.58a14.38,14.38,0,0,1-2-2.27c-1.92-2.64-4.91-9.31-1.3-11.93l.2-.14a5.42,5.42,0,0,1,2.92-1,4.53,4.53,0,0,1,3.63,2l.16.23a5.87,5.87,0,0,0-1.2,3.57,11.56,11.56,0,0,0,1.44,5.13,5.26,5.26,0,0,0-2,.8l-.2.13a4.23,4.23,0,0,0-1.72,3.46" transform="translate(7608.13 -1022.29)"/><path class="cls-1" d="M-7589.66,1041.19a11.62,11.62,0,0,0-4.43-3,6.82,6.82,0,0,0-1.91-.29,5.51,5.51,0,0,0-1.86.32l-.16-.22c-1.58-2.27-1.18-4.72,1.05-6.54l.2-.15a3.9,3.9,0,0,1,2.33-.74,9,9,0,0,1,4.95,2,18.37,18.37,0,0,1,3.66,3.63,15.07,15.07,0,0,1,1.56,2.57,5.32,5.32,0,0,0-1.43-.21,4,4,0,0,0-2.39.77l-.2.15a5.37,5.37,0,0,0-1.37,1.63" transform="translate(7608.13 -1022.29)"/><path class="cls-1" d="M-7589.54,1051.23a11.19,11.19,0,0,1-3.25-.65,15.62,15.62,0,0,1-5.06-2.88c-1.89-1.65-2.6-3.4-2.07-5l.08-.21a4.85,4.85,0,0,1,1.62-2.24,3.73,3.73,0,0,1,2.23-.71,5.1,5.1,0,0,1,1.46.23,10.84,10.84,0,0,1,4.37,3.19,4.65,4.65,0,0,0,.89,3,7.14,7.14,0,0,0,1.83,1.73,4.17,4.17,0,0,1,0,2.33,1.59,1.59,0,0,1-.59.86,2.5,2.5,0,0,1-1.5.39" transform="translate(7608.13 -1022.29)"/><path class="cls-1" d="M-7571,1038a4.23,4.23,0,0,1-2.21-.7,7.4,7.4,0,0,0-1.08-2.29,4.74,4.74,0,0,0-2.58-1.77,10.65,10.65,0,0,1-1.68-5.14,4.06,4.06,0,0,1,1.59-3.36,4.87,4.87,0,0,1,2.63-.85h.22c2.17,0,3.45,1.9,4.15,3.5a15.58,15.58,0,0,1,1.19,5.73c0,2.5-.4,4-1.22,4.6a1.67,1.67,0,0,1-1,.29" transform="translate(7608.13 -1022.29)"/><path class="cls-1" d="M-7582.56,1053.42a7.9,7.9,0,0,1-4.4-1.2.22.22,0,0,1-.09-.26s0,0,0-.06a5.07,5.07,0,0,0,.88-1.64,4.86,4.86,0,0,0,.26-1.7,12.3,12.3,0,0,0,3.31,1.11,7.59,7.59,0,0,0,.93.11,7.9,7.9,0,0,0,.1,3.59,8.5,8.5,0,0,1-1,.05" transform="translate(7608.13 -1022.29)"/><path class="cls-1" d="M-7569.57,1044.67a7.81,7.81,0,0,0-3.38-1.2,8.81,8.81,0,0,0,.19-.92,12.42,12.42,0,0,0,0-3.49,5.22,5.22,0,0,0,1.7.28,5.26,5.26,0,0,0,1.83-.33l.07,0a.22.22,0,0,1,.21.17,8.24,8.24,0,0,1-.58,5.51" transform="translate(7608.13 -1022.29)"/><path class="cls-1" d="M-7554.61,1048.25a3.31,3.31,0,0,1-2-.54c-.34-.25-1.25-.91.84-3.79a12.13,12.13,0,0,1,2.42-2.4,5.93,5.93,0,0,1,3.25-1.33,2.52,2.52,0,0,1,1.51.48l.13.1a3,3,0,0,1,.69,4.26,9.79,9.79,0,0,1-5.69,3.11,7,7,0,0,1-1.16.11" transform="translate(7608.13 -1022.29)"/><path class="cls-1" d="M-7557.92,1054.62a3,3,0,0,1-1.73-.55,1.87,1.87,0,0,1-.76-1,6,6,0,0,1,2.08-5.25h0a4.15,4.15,0,0,0,1,1.06,3.82,3.82,0,0,0,1.53.69c.26,1.13.78,4.33-1.45,5a2.3,2.3,0,0,1-.71.1" transform="translate(7608.13 -1022.29)"/><path class="cls-1" d="M-7559.41,1045.43a1.1,1.1,0,0,1-.66-.24,4.31,4.31,0,0,1-1.39-2.86c-.33-2.22.21-5.08,1.2-6.38a3,3,0,0,1,2.36-1.29,3.52,3.52,0,0,1,1.91.63l.13.09c1.28.93,1.21,2.61.92,3.87a11.53,11.53,0,0,1-1.8,4C-7557.8,1044.68-7558.7,1045.43-7559.41,1045.43Z" transform="translate(7608.13 -1022.29)"/><path class="cls-1" d="M-7564.06,1050.45a1.94,1.94,0,0,1-1.12-.4,3,3,0,0,1-1.19-2.19c0-2.32,3.17-2.82,4.32-2.92a3.8,3.8,0,0,0,1.13,1.24,3.89,3.89,0,0,0,1.31.64s0,0,0,0a6,6,0,0,1-4.35,3.6h-.11" transform="translate(7608.13 -1022.29)"/><path class="cls-1" d="M-7553.23,1037.58a4.23,4.23,0,0,0-1.72-3.46l-.2-.13a5.26,5.26,0,0,0-2-.8,11.53,11.53,0,0,0,1.43-5.13,5.8,5.8,0,0,0-1.19-3.57l.16-.23a4.51,4.51,0,0,1,3.62-2,5.43,5.43,0,0,1,2.93,1l.2.14c2,1.43,1.86,4,1.43,5.92a17.75,17.75,0,0,1-2.73,6,14.91,14.91,0,0,1-2,2.27" transform="translate(7608.13 -1022.29)"/><path class="cls-1" d="M-7546.11,1041.19a5.48,5.48,0,0,0-1.36-1.63l-.2-.15a4,4,0,0,0-2.39-.77,5.27,5.27,0,0,0-1.43.21,15.07,15.07,0,0,1,1.56-2.57,18.37,18.37,0,0,1,3.66-3.63,9,9,0,0,1,5-2,3.92,3.92,0,0,1,2.33.74l.19.15c2.24,1.82,2.63,4.27,1.06,6.54l-.17.22a5.41,5.41,0,0,0-1.85-.32,6.82,6.82,0,0,0-1.91.29,11.72,11.72,0,0,0-4.44,3" transform="translate(7608.13 -1022.29)"/><path class="cls-1" d="M-7546.22,1051.23a2.5,2.5,0,0,1-1.5-.39,1.66,1.66,0,0,1-.6-.86,4.36,4.36,0,0,1,0-2.33,7.2,7.2,0,0,0,1.84-1.73,4.72,4.72,0,0,0,.89-3,10.84,10.84,0,0,1,4.37-3.19,5.1,5.1,0,0,1,1.46-.23,3.73,3.73,0,0,1,2.23.71,4.85,4.85,0,0,1,1.62,2.24l.08.21c.53,1.64-.19,3.39-2.07,5a15.55,15.55,0,0,1-5.07,2.88A11.07,11.07,0,0,1-7546.22,1051.23Z" transform="translate(7608.13 -1022.29)"/><path class="cls-1" d="M-7564.79,1038a1.65,1.65,0,0,1-1-.29c-.82-.6-1.22-2.1-1.22-4.6a15.58,15.58,0,0,1,1.19-5.73c.69-1.6,2-3.5,4.15-3.5h.22a4.81,4.81,0,0,1,2.62.85,4,4,0,0,1,1.6,3.36,10.79,10.79,0,0,1-1.68,5.14,4.74,4.74,0,0,0-2.58,1.77,7.18,7.18,0,0,0-1.08,2.29,4.23,4.23,0,0,1-2.21.7" transform="translate(7608.13 -1022.29)"/><path class="cls-1" d="M-7553.2,1053.42a8.5,8.5,0,0,1-1-.05,7.9,7.9,0,0,0,.1-3.59,7.83,7.83,0,0,0,.93-.11,12.41,12.41,0,0,0,3.31-1.11,5.08,5.08,0,0,0,.25,1.7,5.27,5.27,0,0,0,.88,1.64.21.21,0,0,1,0,.06.24.24,0,0,1-.09.26,7.9,7.9,0,0,1-4.4,1.2" transform="translate(7608.13 -1022.29)"/><path class="cls-1" d="M-7566.19,1044.67a8.24,8.24,0,0,1-.58-5.51.22.22,0,0,1,.21-.17l.07,0a5.26,5.26,0,0,0,1.83.33,5.12,5.12,0,0,0,1.69-.28,12.78,12.78,0,0,0,0,3.49,8.81,8.81,0,0,0,.19.92,7.81,7.81,0,0,0-3.38,1.2" transform="translate(7608.13 -1022.29)"/><path class="cls-1" d="M-7567.39,1075.85a.49.49,0,0,1-.49.49.49.49,0,0,1-.49-.49.49.49,0,0,1,.49-.49.49.49,0,0,1,.49.49" transform="translate(7608.13 -1022.29)"/><path class="cls-1" d="M-7552.26,1064.14a.49.49,0,0,1,.32.62.48.48,0,0,1-.62.31.49.49,0,0,1-.32-.61.5.5,0,0,1,.62-.32" transform="translate(7608.13 -1022.29)"/><path class="cls-1" d="M-7583.5,1064.14a.49.49,0,0,0-.32.62.48.48,0,0,0,.62.31.47.47,0,0,0,.31-.61.49.49,0,0,0-.61-.32" transform="translate(7608.13 -1022.29)"/><path class="cls-1" d="M-7577,1046.13a.48.48,0,0,0-.68-.11.5.5,0,0,0-.11.69.5.5,0,0,0,.69.11.49.49,0,0,0,.1-.69" transform="translate(7608.13 -1022.29)"/><path class="cls-1" d="M-7558.72,1046.13a.5.5,0,0,1,.69-.11.5.5,0,0,1,.11.69.5.5,0,0,1-.69.11.5.5,0,0,1-.11-.69" transform="translate(7608.13 -1022.29)"/><path class="cls-1" d="M-7567.16,1037.89a.72.72,0,0,1-.72.72.72.72,0,0,1-.72-.72.73.73,0,0,1,.72-.73.73.73,0,0,1,.72.73" transform="translate(7608.13 -1022.29)"/><path class="cls-1" d="M-7546.44,1052.92a.72.72,0,0,1-.72.72.73.73,0,0,1-.73-.72.73.73,0,0,1,.73-.73.73.73,0,0,1,.72.73" transform="translate(7608.13 -1022.29)"/><path class="cls-1" d="M-7587.88,1052.92a.73.73,0,0,1-.73.72.72.72,0,0,1-.72-.72.73.73,0,0,1,.72-.73.73.73,0,0,1,.73.73" transform="translate(7608.13 -1022.29)"/><path class="cls-1" d="M-7580,1077.36a.72.72,0,0,1-.72.72.73.73,0,0,1-.73-.72.73.73,0,0,1,.73-.72.72.72,0,0,1,.72.72" transform="translate(7608.13 -1022.29)"/><path class="cls-1" d="M-7554.35,1077.36a.72.72,0,0,1-.72.72.72.72,0,0,1-.72-.72.72.72,0,0,1,.72-.72.72.72,0,0,1,.72.72" transform="translate(7608.13 -1022.29)"/><path class="cls-1" d="M-7567.89,1068.37a4.41,4.41,0,0,1-3.11-1.28,1.5,1.5,0,0,1,0-2.11,1.5,1.5,0,0,1,1.06-.44,1.48,1.48,0,0,1,1,.44,1.4,1.4,0,0,0,1,.41,1.4,1.4,0,0,0,1-.41,1.52,1.52,0,0,1,1.06-.44,1.48,1.48,0,0,1,1.05.44,1.48,1.48,0,0,1,.44,1,1.52,1.52,0,0,1-.44,1.06,4.4,4.4,0,0,1-3.11,1.28" transform="translate(7608.13 -1022.29)"/><path class="cls-1" d="M-7562.38,1065.06a1.47,1.47,0,0,1-1.33-.81,1.49,1.49,0,0,1,.65-2,1.38,1.38,0,0,0,.7-.82,1.4,1.4,0,0,0-.08-1.08,1.5,1.5,0,0,1,.65-2,1.44,1.44,0,0,1,.67-.16,1.47,1.47,0,0,1,1.33.81,4.36,4.36,0,0,1,.27,3.36,4.37,4.37,0,0,1-2.19,2.56,1.44,1.44,0,0,1-.67.16" transform="translate(7608.13 -1022.29)"/><path class="cls-1" d="M-7562.29,1057.21a1.49,1.49,0,0,1-1.47-1.26,1.41,1.41,0,0,0-.56-.92,1.36,1.36,0,0,0-.83-.28l-.23,0a.86.86,0,0,1-.23,0,1.48,1.48,0,0,1-1.47-1.26,1.49,1.49,0,0,1,1.24-1.7,4,4,0,0,1,.69-.06,4.31,4.31,0,0,1,2.58.85,4.37,4.37,0,0,1,1.76,2.86,1.46,1.46,0,0,1-.27,1.11,1.48,1.48,0,0,1-1,.6l-.24,0" transform="translate(7608.13 -1022.29)"/><path class="cls-1" d="M-7573.38,1065.06a1.44,1.44,0,0,1-.67-.16,4.37,4.37,0,0,1-2.19-2.56,4.41,4.41,0,0,1,.26-3.36,1.5,1.5,0,0,1,1.33-.81,1.45,1.45,0,0,1,.68.16,1.51,1.51,0,0,1,.65,2,1.4,1.4,0,0,0-.08,1.08,1.34,1.34,0,0,0,.7.82,1.5,1.5,0,0,1,.65,2A1.47,1.47,0,0,1-7573.38,1065.06Z" transform="translate(7608.13 -1022.29)"/><path class="cls-1" d="M-7573.49,1057.21l-.23,0a1.5,1.5,0,0,1-1-.6,1.5,1.5,0,0,1-.26-1.11,4.36,4.36,0,0,1,1.76-2.86,4.31,4.31,0,0,1,2.58-.85,4,4,0,0,1,.69.06,1.49,1.49,0,0,1,1.24,1.7,1.49,1.49,0,0,1-1.47,1.26,1,1,0,0,1-.24,0l-.22,0a1.43,1.43,0,0,0-.83.27,1.41,1.41,0,0,0-.57.93,1.48,1.48,0,0,1-1.47,1.26" transform="translate(7608.13 -1022.29)"/><path class="cls-1" d="M-7568.83,1060.05a1.64,1.64,0,0,1-1.64,1.64,1.63,1.63,0,0,1-1.63-1.64,1.63,1.63,0,0,1,1.63-1.63,1.64,1.64,0,0,1,1.64,1.63" transform="translate(7608.13 -1022.29)"/><path class="cls-1" d="M-7566.55,1055.64a1.64,1.64,0,0,1,1.05,2.06,1.63,1.63,0,0,1-2.06,1,1.63,1.63,0,0,1-1-2.06,1.63,1.63,0,0,1,2.06-1" transform="translate(7608.13 -1022.29)"/><path class="cls-1" d="M-7567.53,1060.61a1.63,1.63,0,0,1,2.28-.36,1.63,1.63,0,0,1,.36,2.28,1.63,1.63,0,0,1-2.28.36,1.63,1.63,0,0,1-.36-2.28" transform="translate(7608.13 -1022.29)"/></g></g></svg>